<svg xmlns="http://www.w3.org/2000/svg" height="800" width="1200" viewBox="-35.431395 -23.724075 307.07209 142.34445"><path d="M5.362 84.7114l-1.7469 5.388H6.961zm2.9896 10.0808l-.913-3.0417H3.0593l-.9735 3.0417H0l4.2932-12.6703H6.422l4.0411 12.6703H8.3516m10.5583 0v-5.501h-5.162v5.501h-1.9547V82.1219h1.9547V87.64h5.162v-5.5182h1.9552v12.6703h-1.9552m4.4318.0001V82.1219h7.6906v1.651h-5.7354v3.8672h4.2234v1.651h-4.2234v3.85h5.7354v1.651h-7.6906m13.7567-10.0807l-1.7468 5.388h3.3457zm2.9896 10.0808l-.913-3.0417h-4.379l-.9735 3.0417h-2.086l4.2928-12.6703h2.1292l4.0405 12.6703h-2.111m8.5156-1.6511c.3937 0 .7125-.0536.9557-.161.2434-.1072.4407-.2676.5912-.4822.087-.1156.1594-.2547.2172-.4172.0578-.162.1068-.3911.1479-.6864.0407-.2954.0693-.6782.0865-1.147.0176-.4692.026-1.066.026-1.79 0-.7245-.0084-1.3209-.026-1.7907-.0172-.4687-.0458-.8515-.0865-1.1468-.041-.2953-.0901-.5245-.1479-.6865-.0578-.162-.1302-.301-.2172-.4172-.1505-.214-.3478-.375-.5912-.4823-.2432-.1072-.562-.1609-.9557-.1609h-3.1197v9.3682zm-5.075 1.651V82.122h5.0407c.3526 0 .676.025.9682.074.2928.0494.5594.1202.7994.213.2407.0927.4595.2025.6563.3301a3.648 3.648 0 01.548.4344c.2083.2032.3833.4537.525.7516.1422.2984.2551.661.3395 1.0864.0839.426.1443.9224.1823 1.4902.0375.5682.0568 1.2197.0568 1.9557 0 .7354-.0193 1.3875-.0568 1.9552-.038.5677-.0984 1.064-.1823 1.49-.0844.4256-.1973.7897-.3396 1.0907-.1416.301-.3166.5505-.5249.7474a3.8159 3.8159 0 01-.548.4385c-.1968.1308-.4156.2407-.6563.3308-.24.0896-.5066.1594-.7994.2083-.2922.0495-.6156.074-.9682.074h-5.0406m22.863-2.3642c.0875-.1156.1635-.2562.2307-.4213.0667-.1652.1197-.3938.161-.6865.04-.2922.0707-.6677.0911-1.1255.0203-.4573.0302-1.0365.0302-1.7375 0-.701-.0099-1.2823-.0302-1.7427-.0204-.4604-.051-.8354-.0912-1.1256-.0412-.2895-.0942-.5166-.1609-.6817-.0672-.1651-.1432-.3057-.2307-.4214-.2026-.2666-.4833-.4698-.8428-.6083-.3593-.139-.8484-.2089-1.4686-.2089-.6262 0-1.1167.0698-1.473.2089-.3557.1385-.636.3417-.8385.6083-.087.1157-.1641.2563-.2303.4214-.0666.165-.1218.3922-.1645.6817-.0437.2902-.0761.6652-.0959 1.1256-.0202.4604-.0308 1.0416-.0308 1.7427 0 .701.0106 1.2802.0308 1.7375.0198.4578.0522.8333.0959 1.1255.0427.2927.0979.5213.1645.6865.0662.165.1432.3057.2303.4213.2025.2667.4828.4698.8385.6089.3563.1385.8468.2083 1.473.2083.6202 0 1.1093-.0698 1.4686-.2083.3595-.1391.6402-.3422.8428-.6089zm1.4432 1.3125a3.2392 3.2392 0 01-.5958.4823c-.223.1422-.4839.2635-.7818.3651-.2985.101-.6433.1781-1.0338.2302-.3918.0521-.8386.0781-1.3432.0781-.51 0-.9584-.026-1.3464-.078-.3886-.0522-.7318-.1293-1.0303-.2303-.299-.1016-.5588-.223-.7817-.3651a3.2392 3.2392 0 01-.5959-.4823c-.202-.2026-.3724-.4547-.5083-.7562-.136-.301-.2474-.6646-.3349-1.0907-.0864-.4255-.149-.9208-.1864-1.486-.038-.5645-.0563-1.215-.0563-1.9504 0-.736.0183-1.3865.0563-1.951.0375-.5652.1-1.0605.1864-1.486.0875-.426.199-.7896.335-1.0911.1358-.301.3062-.5526.5082-.7558a3.283 3.283 0 01.5959-.4823c.2229-.1416.4828-.262.7817-.3604.2985-.0984.6417-.1755 1.0303-.2302.388-.0552.8364-.0828 1.3464-.0828.5046 0 .9514.0276 1.3432.0828.3905.0547.7353.1318 1.0338.2302.2979.0985.5588.2188.7818.3604a3.283 3.283 0 01.5958.4823c.1963.2032.364.4547.5036.7558.1396.3015.2522.665.3391 1.0911.0864.4255.149.9208.187 1.486.037.5645.0557 1.215.0557 1.951 0 .7354-.0187 1.386-.0558 1.9505-.038.5651-.1005 1.0604-.1869 1.486-.087.426-.1995.7895-.339 1.0906-.1397.3015-.3074.5536-.5037.7562m3.3974 1.0516V82.1219h7.6912v1.651h-5.736v3.8672h4.2234v1.651h-4.2234v5.501h-1.9552m22.6032.0001l-2.1552-7.4735-2.259 7.4735h-2.1202l-3.276-12.6703h2.067l2.2943 9.9849 2.3901-7.6386h1.9032l2.2067 7.5255 2.4163-9.8718h2.0681L95.912 94.7922h-2.0765m14.0864 0v-5.501h-5.162v5.501h-1.9552V82.1219h1.9552V87.64h5.162v-5.5182h1.9552v12.6703h-1.9552m8.6546-10.0807l-1.7462 5.388h3.3452zm2.9896 10.0808l-.9125-3.0417h-4.3796l-.973 3.0417h-2.0865l4.2934-12.6703h2.1285l4.0412 12.6703h-2.1115m4.5975 0V83.7729h-3.224v-1.651h8.4025v1.651h-3.2233v11.0193h-1.9552m6.3094-9.3422c.191-.0115.3463-.0375.4645-.0776.1188-.0406.2114-.1031.2781-.187.0661-.0844.111-.1958.135-.3349.0234-.139.0343-.3125.0343-.5213v-.3735h-.8166V82.122h1.738v2.0073c0 .3593-.0276.6593-.0823.8994-.0552.2407-.1453.4391-.2699.5953-.1244.1568-.2869.2813-.4864.374-.2.0922-.4474.1651-.7432.2172l-.2516-.7651m10.0271-.2173c-.0107-.1677-.0413-.3443-.0907-.5297-.048-.1854-.152-.3552-.308-.5083-.1573-.1537-.3853-.2797-.6866-.3782-.3014-.0984-.716-.1479-1.2427-.1479-.8227 0-1.452.1422-1.8907.426-.4373.284-.656.736-.656 1.3553 0 .3187.0774.5724.2307.761.1533.188.3613.3359.6213.4432.2614.1067.5614.1864.904.2385.3414.052.7014.099 1.0774.139.2946.035.6053.0782.9306.1303.324.0526.64.1276.9507.226a4.557 4.557 0 01.8867.3912c.28.1624.5266.374.7386.6343.2107.2604.3787.5792.504.9563.124.3765.1867.825.1867 1.3463 0 .6839-.1053 1.2865-.3173 1.8078-.2107.5214-.5134.9573-.908 1.3079-.3947.3505-.8734.6156-1.4374.7953-.5653.1791-1.2013.2692-1.908.2692-.7186 0-1.3266-.088-1.8253-.265-.4987-.1766-.9107-.3995-1.2373-.6693-.328-.2693-.584-.5646-.7707-.886-.1853-.3218-.3213-.6317-.408-.9302-.0867-.2984-.14-.562-.16-.7906-.02-.2286-.0307-.3839-.0307-.4651h1.9374c0 .2781.0413.5562.1226.8344.08.278.216.5302.408.7562.1907.2255.4454.4094.7654.5516.3173.1422.7173.213 1.1986.213.3934 0 .748-.0495 1.064-.148.316-.0984.5854-.2463.808-.4431.224-.197.3947-.4433.5134-.7386.1186-.2953.1773-.6375.1773-1.0255 0-.4052-.068-.7271-.208-.9646-.1387-.2375-.3453-.4224-.6173-.5557-.272-.1334-.612-.235-1.02-.3042-.4094-.0698-.8854-.1422-1.4307-.2177a14.2415 14.2415 0 01-1.368-.2693c-.444-.1099-.8373-.2781-1.1813-.5041-.3454-.2256-.624-.5287-.8347-.9079-.212-.3796-.3173-.8708-.3173-1.4729 0-.1218.0133-.2984.0386-.5302.0267-.2317.0867-.4838.1827-.7562s.236-.55.4213-.8344c.1854-.2833.44-.5396.7654-.7687.324-.2287.728-.4172 1.212-.5652.484-.1474 1.0706-.2213 1.76-.2213.596 0 1.0946.0318 1.4946.0958.3987.0636.732.149.9987.2563.2667.1073.4813.2276.644.3604.1613.1333.3067.2698.4333.4083.2787.2959.4774.6245.596.9865.1187.3625.1774.7312.1774 1.1078H140.5m12.8707 3.3896c.2546 0 .5213-.0406.8-.1219.2773-.0812.532-.2151.764-.4005.232-.186.424-.4339.5733-.7448.152-.3104.2267-.6948.2267-1.1531 0-.3308-.0454-.6427-.1347-.936-.0907-.2932-.22-.551-.3907-.7745-.172-.2239-.3813-.3994-.6306-.527-.2494-.1276-.5334-.1917-.852-.1917h-2.6414v4.8495zm-4.24 6.1698V82.1219h4.84c.5906 0 1.1186.0958 1.5853.287.4667.191.8613.4645 1.1867.8208.324.3567.572.7854.7426 1.2864.1707.501.2574 1.0615.2574 1.6818 0 .6198-.096 1.1802-.288 1.6813-.1907.501-.4547.9286-.7894 1.2817-.3373.3537-.7346.6271-1.196.8214-.46.1943-.96.2906-1.4986.2906h-2.8854v4.5193h-1.9546m17.4053-2.3641c.088-.1156.164-.2562.2307-.4213.0666-.1652.12-.3938.1613-.6865.04-.2922.0707-.6677.0907-1.1255.02-.4573.0306-1.0365.0306-1.7375 0-.701-.0106-1.2823-.0306-1.7427-.02-.4604-.0507-.8354-.0907-1.1256-.0413-.2895-.0947-.5166-.1613-.6817-.0667-.1651-.1427-.3057-.2307-.4214-.2027-.2666-.4827-.4698-.8427-.6083-.36-.139-.848-.2089-1.4693-.2089-.6253 0-1.116.0698-1.472.2089-.356.1385-.636.3417-.8387.6083-.0866.1157-.164.2563-.2306.4214-.0667.165-.1214.3922-.164.6817-.044.2902-.076.6652-.096 1.1256-.02.4604-.0307 1.0416-.0307 1.7427 0 .701.0107 1.2802.0307 1.7375.02.4578.052.8333.096 1.1255.0426.2927.0973.5213.164.6865.0666.165.144.3057.2306.4213.2027.2667.4827.4698.8387.6089.356.1385.8467.2083 1.472.2083.6213 0 1.1093-.0698 1.4693-.2083.36-.1391.64-.3422.8427-.6089zm1.4427 1.3125c-.1734.1797-.372.3406-.5947.4823-.2227.1422-.484.2635-.7827.3651-.2973.101-.6426.1781-1.0333.2302-.392.0521-.8387.0781-1.344.0781-.5093 0-.9573-.026-1.3453-.078-.3894-.0522-.732-.1293-1.0307-.2303-.2987-.1016-.5587-.223-.7813-.3651-.224-.1417-.4227-.3026-.596-.4823-.2027-.2026-.372-.4547-.508-.7562-.136-.301-.248-.6646-.3347-1.0907-.0867-.4255-.1493-.9208-.1867-1.486-.0386-.5645-.056-1.215-.056-1.9504 0-.736.0174-1.3865.056-1.951.0374-.5652.1-1.0605.1867-1.486.0867-.426.1987-.7896.3347-1.0911.136-.301.3053-.5526.508-.7558.1733-.1791.372-.34.596-.4823.2226-.1416.4826-.262.7813-.3604.2987-.0984.6413-.1755 1.0307-.2302.388-.0552.836-.0828 1.3453-.0828.5053 0 .952.0276 1.344.0828.3907.0547.736.1318 1.0333.2302.2987.0985.56.2188.7827.3604.2227.1422.4213.3032.5947.4823.1973.2032.3653.4547.504.7558.14.3015.252.665.34 1.0911.0866.4255.1493.9208.1866 1.486.0374.5645.056 1.215.056 1.951 0 .7354-.0186 1.386-.056 1.9505-.0373.5651-.1 1.0604-.1866 1.486-.088.426-.2.7895-.34 1.0906-.1387.3015-.3067.5536-.504.7562m9.8013-8.5078c-.0107-.1677-.0413-.3443-.0907-.5297-.0493-.1854-.152-.3552-.308-.5083-.1573-.1537-.3853-.2797-.6866-.3782-.3014-.0984-.716-.1479-1.2427-.1479-.8227 0-1.452.1422-1.8907.426-.4373.284-.656.736-.656 1.3553 0 .3187.0774.5724.2307.761.1533.188.3613.3359.6213.4432.2614.1067.5614.1864.904.2385.3414.052.7.099 1.0774.139.2946.035.6053.0782.9293.1303.3253.0526.6413.1276.952.226a4.557 4.557 0 01.8867.3912c.28.1624.5266.374.7386.6343.2107.2604.3787.5792.504.9563.124.3765.1867.825.1867 1.3463 0 .6839-.1053 1.2865-.3173 1.8078-.2107.5214-.5134.9573-.908 1.3079-.3947.3505-.8734.6156-1.4374.7953-.5653.1791-1.2013.2692-1.908.2692-.7186 0-1.3266-.088-1.8253-.265-.4987-.1766-.9107-.3995-1.2373-.6693-.328-.2693-.584-.5646-.7707-.886-.1853-.3218-.3213-.6317-.408-.9302-.0867-.2984-.14-.562-.16-.7906-.02-.2286-.0307-.3839-.0307-.4651h1.9374c0 .2781.0413.5562.1226.8344.08.278.216.5302.408.7562.1907.2255.4454.4094.7654.5516.3173.1422.7173.213 1.1986.213.3934 0 .748-.0495 1.064-.148.316-.0984.5854-.2463.808-.4431.224-.197.3947-.4433.5134-.7386.1186-.2953.1773-.6375.1773-1.0255 0-.4052-.068-.7271-.208-.9646-.1387-.2375-.3453-.4224-.6173-.5557-.272-.1334-.612-.235-1.02-.3042-.4094-.0698-.8867-.1422-1.4307-.2177a14.2415 14.2415 0 01-1.368-.2693c-.444-.1099-.8373-.2781-1.1813-.5041-.3454-.2256-.624-.5287-.8347-.9079-.212-.3796-.3173-.8708-.3173-1.4729 0-.1218.0133-.2984.0386-.5302.0267-.2317.0867-.4838.1827-.7562s.236-.55.4213-.8344c.1854-.2833.44-.5396.7654-.7687.324-.2287.728-.4172 1.212-.5652.484-.1474 1.0693-.2213 1.76-.2213.596 0 1.0946.0318 1.4946.0958.3987.0636.732.149.9987.2563.2667.1073.4813.2276.644.3604.1613.1333.3067.2698.4333.4083.2787.2959.4774.6245.596.9865.1187.3625.1774.7312.1774 1.1078H177.78m10.5853 0a2.8503 2.8503 0 00-.0906-.5297c-.0494-.1854-.152-.3552-.3094-.5083-.156-.1537-.3853-.2797-.6866-.3782-.3014-.0984-.7147-.1479-1.2427-.1479-.8227 0-1.452.1422-1.8893.426-.4374.284-.656.736-.656 1.3553 0 .3187.076.5724.2306.761.1534.188.36.3359.62.4432.2614.1067.5627.1864.904.2385.3414.052.7014.099 1.0787.139.2947.035.604.0782.9293.1303a6.646 6.646 0 01.9507.226c.3107.099.6053.2292.8867.3912.2813.1624.528.374.7386.6343.212.2604.38.5792.504.9563.1254.3765.188.825.188 1.3463 0 .6839-.1066 1.2865-.3186 1.8078-.2107.5214-.5134.9573-.9067 1.3079-.3947.3505-.8747.6156-1.4387.7953-.5653.1791-1.2013.2692-1.908.2692-.7186 0-1.3266-.088-1.824-.265-.4986-.1766-.912-.3995-1.2386-.6693-.328-.2693-.584-.5646-.7694-.886-.1853-.3218-.3213-.6317-.408-.9302-.088-.2984-.1413-.562-.1613-.7906-.02-.2286-.0307-.3839-.0307-.4651h1.9387c0 .2781.04.5562.1213.8344.0814.278.2174.5302.408.7562.192.2255.4467.4094.7654.5516.3186.1422.7186.213 1.1986.213.3947 0 .7494-.0495 1.0654-.148.316-.0984.584-.2463.808-.4431.2226-.197.3933-.4433.512-.7386.1186-.2953.1786-.6375.1786-1.0255 0-.4052-.0693-.7271-.208-.9646-.14-.2375-.3453-.4224-.6173-.5557-.272-.1334-.6133-.235-1.0213-.3042-.408-.0698-.8854-.1422-1.4294-.2177a14.3505 14.3505 0 01-1.3693-.2693c-.4427-.1099-.8373-.2781-1.1813-.5041-.3454-.2256-.6227-.5287-.8347-.9079-.212-.3796-.3173-.8708-.3173-1.4729 0-.1218.0133-.2984.04-.5302.0253-.2317.0866-.4838.1813-.7562.096-.2724.2373-.55.4227-.8344.184-.2833.44-.5396.764-.7687.3253-.2287.728-.4172 1.212-.5652.484-.1474 1.0706-.2213 1.76-.2213.5973 0 1.0946.0318 1.4946.0958.4.0636.7334.149 1 .2563.2654.1073.48.2276.6427.3604.1627.1333.3067.2698.4347.4083.2773.2959.476.6245.596.9865.1173.3625.1773.7312.1773 1.1078h-1.8947m4.2147 9.5594h1.9557V82.1219H192.58zm9.5773-1.6511c.3 0 .5667-.061.7987-.1828.232-.1213.4267-.2776.5827-.4693a1.9954 1.9954 0 00.3506-.6343c.08-.2318.1187-.4573.1187-.6776 0-.2953-.0427-.5589-.1267-.7907-.084-.2317-.2026-.4291-.356-.5911-.1533-.162-.3373-.287-.552-.3734-.2146-.087-.452-.1308-.712-.1308h-3.26v3.85zm-.4266-5.501c.3826 0 .7066-.0635.9733-.1912.2667-.127.4827-.287.648-.4776.164-.1916.2853-.3984.36-.6218.0747-.223.1133-.4271.1133-.6125 0-.6896-.196-1.1891-.5866-1.499-.3907-.3099-.9547-.4651-1.6907-.4651h-2.5467v3.8672zm-4.684 7.152V82.122h5.1453c.556 0 1.0307.0697 1.424.2088.3947.139.728.3156 1 .5297.272.2146.488.4536.6467.7172.16.2635.2826.5198.3706.7687.0867.2495.1427.4756.1694.6782.0253.2026.0386.3505.0386.4432 0 .2203-.0213.4578-.0653.7125-.044.2552-.1253.5099-.244.7646-.1173.2552-.2787.5-.4813.7344-.2027.2348-.4614.439-.7734.613.5734.2724 1.0054.65 1.2987 1.1338.292.4839.4387 1.0386.4387 1.664 0 .1392-.012.3277-.0347.5652-.0227.2375-.0787.4922-.1653.7646-.0867.2724-.212.5505-.3774.8344-.1653.2838-.3893.5385-.6733.7645-.284.2256-.636.4115-1.056.5563-.42.1448-.9253.2172-1.516.2172h-5.1453m10.9933-.0001V82.1219h1.9547V93.141h4.936v1.651H208.04m8.4293.0002V82.1219h7.6907v1.651h-5.736v3.8672h4.224v1.651h-4.224v3.85h5.736v1.651h-7.6907m11.0587-6.5968v-5.2937h-1.548v-.7933h4.0373v.7933h-1.5493v5.2937h-.94m7.792 0v-4.4547l-1.4947 3.0854h-.756l-1.452-3.0437v4.413h-.8893v-6.087h1.044l1.7027 3.574 1.708-3.574h1.0266v6.087h-.8893M.6865.6657h62.3151V63.316H.6865zm12.825 9.7525v44.9495l39.0724-22.975zM83.975 62.651H73.2219V34.7291H84.04c8.0162 0 12.8244 6.3448 12.8244 14.426 0 8.0839-4.2728 13.4959-12.8894 13.4959m9.5494-34.2635l-2.1333-6.2125H81.1027l-1.8715 6.2125h-5.6093L83.039.401h5.677l10.5532 27.9865zM83.5073 39.473h-4.4089v18.8344h4.7443c6.277 0 7.213-5.3443 7.1453-9.4172 0-3.2074-1.5364-9.4172-7.4807-9.4172m5.9443-22.9099L85.9115 6.2775l-3.137 10.221-.2032 1.7333h6.948c0-.9328.0676-1.1333-.0677-1.6688m9.4197 46.088V34.7291h20.5708v4.6766h-14.964v5.9442h13.225v5.0767h-13.1572v7.4807h15.364v4.7437zm19.3672-34.2635l-12.289-18.9052v18.9052H100.34V.401h5.7448l11.8182 18.6339V.401h5.612v27.9865zm17.5655 34.1958h-5.3436l-9.214-26.3828V34.729h5.6063l6.2796 20.438 6.145-20.3702h5.476v1.4688zm8.8853-34.1958l-2.14-6.2125h-10.2848l-1.8686 6.2125h-5.612L134.2013.401h5.6787l10.5507 27.9865zm-4.0106-11.6922l-3.5387-10.55-3.5427 10.55v1.5365h7.216c0-.9328 0-1.0683-.1346-1.5365m5.812 18.1016h5.944v27.7864h-5.944zm5.1413-6.4094V.401h5.5467v23.2427h12.4866v4.7438zm15.564 34.9286c-15.2933.3354-17.9693-29.187.0653-28.987 10.02 0 11.756 8.349 12.156 9.6172h-5.544c-.868-1.7333-3.14-5.0734-5.9413-5.2765-9.8853-.6652-9.8853 20.238 0 20.238 4.7413 0 5.8773-4.7412 6.1413-5.274h5.412c0 .0652-.6706 9.55-12.2893 9.6823m15.3613-34.4635c-17.968 0-17.2973-28.9875.2-28.8521 16.8987.1322 17.3667 28.8521-.2 28.8521m-.2-4.6735c10.3507.0646 10.3507-19.3052.2-19.4374-10.084-.0678-10.42 19.3697-.2 19.4374m-1.8706 38.4719V34.7291h19.8346v5.0798h-14.4906v5.741h12.8213v5.009h-12.7573v7.3484h15.0973v4.7437zm37.6706-34.9344v-2.6692c-.6.5323-3.2746 3.9401-8.284 3.8052-17.0946-.4005-17.1653-28.4516.804-28.787 4.3374 0 7.9454 2.7395 9.3494 4.676 1.6706 2.2042 1.804 4.0755 1.8706 4.5438h-4.7426c-1.0694-1.7396-2.74-4.6765-6.6774-4.6765-10.4213-.1323-11.0866 19.5702-.068 19.7677 4.876.1323 7.3454-4.9412 7.3454-5.0063V17.899h-6.6774v-4.3407h11.4854v14.1583zm-5.212 35.6672c-11.8213 0-11.688-9.0844-11.688-9.0844h5.344s-.4026 4.4084 5.5467 4.809c1.4693.0671 6.2773-.5329 6.2773-3.8735 0-3.8724-4.8786-3.6755-7.948-4.5407-3.076-.8036-8.8853-2.1396-8.8853-7.5484 0-4.7412 3.8733-8.8167 11.3533-8.8167 10.0214.0678 9.9534 7.8162 10.0214 8.2839h-5.1414c-.3386-1.1385-.6706-3.8755-5.144-4.0079-2.204 0-5.5453.7355-5.5453 3.3371 0 3.2755 3.7387 3.7405 7.6813 4.3405 5.9454 1.1391 9.352 2.9434 9.1494 8.4167-.132 4.809-4.408 8.6844-11.0214 8.6844" fill="#231f20"/></svg>