<?xml version="1.0" encoding="UTF-8" standalone="no"?>
<!-- Created with Inkscape (http://www.inkscape.org/) -->

<svg
   version="1.1"
   id="svg25"
   xml:space="preserve"
   width="693.33331"
   height="122.66667"
   viewBox="0 0 693.33331 122.66667"
   xmlns="http://www.w3.org/2000/svg"
   xmlns:svg="http://www.w3.org/2000/svg"><defs
     id="defs29" /><g
     id="g31"
     transform="matrix(1.3333333,0,0,-1.3333333,0,122.66667)"><path
       d="m 95.62,35.053 h 21.915 l -10.782,33.985 z m 67.206,38.731 V 17.417 h 16.641 c 8.514,0 14.452,4.198 17.812,12.597 1.835,4.609 2.752,10.097 2.754,16.465 0,8.789 -1.388,15.527 -4.16,20.215 -2.736,4.726 -8.203,7.088 -16.406,7.09 z m 71.93,0 V 17.417 h 16.641 c 8.514,0 14.452,4.198 17.812,12.597 1.835,4.609 2.752,10.097 2.754,16.465 0,8.789 -1.388,15.527 -4.16,20.215 -2.736,4.726 -8.203,7.088 -16.406,7.09 z M 346.432,23.217 c 4.219,5.274 6.328,12.774 6.328,22.5 0,9.687 -2.109,17.167 -6.328,22.442 -4.18,5.312 -9.844,7.967 -16.992,7.969 -7.149,0 -12.852,-2.637 -17.11,-7.911 -4.259,-5.273 -6.386,-12.773 -6.386,-22.5 0,-9.726 2.127,-17.226 6.386,-22.5 4.258,-5.273 9.959,-7.91 17.11,-7.91 7.148,0 12.812,2.637 16.992,7.91 z m 96.848,8.614 v 28.183 h -16.274 c -1.172,4.14 -2.677,7.264 -4.512,9.375 -3.281,3.75 -8.144,5.625 -14.589,5.625 -6.563,0 -11.739,-2.657 -15.528,-7.968 -3.79,-5.274 -5.683,-12.756 -5.683,-22.442 0,-9.688 1.992,-16.954 5.976,-21.797 4.023,-4.804 9.121,-7.207 15.293,-7.207 6.328,0 11.151,2.069 14.473,6.211 1.834,2.227 3.358,5.567 4.57,10.02 z m 0,56.953 h 17.754 V 53.217 l 33.339,35.567 h 23.32 l -35.39,-35.567 37.207,-50.8 h -23.203 l -26.66,37.734 -8.613,-8.848 V 2.417 H 443.28 v 22.782 c -2.084,-6.445 -5.555,-11.891 -10.415,-16.337 -6.406,-5.9 -14.629,-8.846 -24.668,-8.848 -12.421,0 -22.188,3.985 -29.296,11.953 -4.718,5.313 -7.87,11.933 -9.457,19.861 -1.905,-8.911 -5.806,-16.156 -11.703,-21.736 -6.525,-6.72 -15.958,-10.076 -28.301,-10.078 -12.345,0 -21.779,3.358 -28.301,10.078 -6.348,5.979 -10.393,13.869 -12.136,23.672 C 287.871,28.122 286,23.044 283.389,18.53 277.138,7.787 267.49,2.417 254.444,2.417 H 217.237 V 34.61 C 216.126,28.629 214.199,23.269 211.459,18.53 205.208,7.787 195.56,2.417 182.514,2.417 H 128.14 l -5.566,17.754 H 90.757 L 84.781,2.417 H 65.913 l 4.571,12.808 C 68.897,12.915 67.047,10.794 64.935,8.862 58.529,2.962 50.305,0.016 40.267,0.014 27.846,0.014 18.079,3.999 10.971,11.967 3.861,19.975 0.306,30.95 0.306,44.897 c 0,15.077 4.043,26.699 12.129,34.863 7.032,7.109 15.976,10.663 26.836,10.664 14.532,0 25.155,-4.766 31.875,-14.296 3.71,-5.353 5.702,-10.723 5.977,-16.114 H 59.076 c -1.172,4.14 -2.677,7.264 -4.512,9.375 -3.281,3.75 -8.144,5.625 -14.59,5.625 -6.562,0 -11.738,-2.657 -15.527,-7.968 -3.79,-5.274 -5.684,-12.756 -5.684,-22.442 0,-9.688 1.993,-16.954 5.977,-21.797 4.023,-4.804 9.121,-7.207 15.293,-7.207 6.328,0 11.151,2.069 14.473,6.211 1.834,2.227 3.358,5.567 4.57,10.02 H 76.41 l 20.324,56.953 h 20.39 l 28.183,-79.58 v 79.58 h 37.207 c 5.35,-0.079 9.803,-0.703 13.359,-1.875 6.053,-1.992 10.955,-5.645 14.707,-10.957 3.007,-4.298 5.057,-8.947 6.152,-13.946 0.184,-0.839 0.352,-1.672 0.505,-2.499 v 29.277 h 37.207 c 5.35,-0.079 9.803,-0.703 13.359,-1.875 6.054,-1.992 10.955,-5.645 14.707,-10.957 3.007,-4.298 5.057,-8.947 6.152,-13.946 0.213,-0.973 0.405,-1.938 0.577,-2.894 1.856,9.313 5.823,16.723 11.9,22.23 6.522,6.719 15.956,10.077 28.301,10.079 12.343,0 21.776,-3.36 28.301,-10.079 6.08,-5.536 10.038,-12.994 11.874,-22.375 1.807,8.45 5.391,15.381 10.75,20.793 7.032,7.109 15.977,10.663 26.837,10.664 14.531,0 25.155,-4.766 31.875,-14.296 1.809,-2.612 3.21,-5.227 4.203,-7.847 v 20.503"
       style="fill:#ffffff;fill-opacity:1;fill-rule:nonzero;stroke:none"
       id="path33" /><path
       d="m 12.435,79.76 c 7.032,7.109 15.976,10.663 26.836,10.664 14.532,0 25.155,-4.766 31.875,-14.296 3.71,-5.353 5.702,-10.723 5.977,-16.114 H 59.076 c -1.172,4.14 -2.677,7.264 -4.512,9.375 -3.281,3.75 -8.144,5.625 -14.59,5.625 -6.562,0 -11.738,-2.657 -15.527,-7.968 -3.79,-5.274 -5.684,-12.756 -5.684,-22.442 0,-9.688 1.993,-16.954 5.977,-21.797 4.023,-4.804 9.121,-7.207 15.293,-7.207 6.328,0 11.151,2.069 14.473,6.211 1.834,2.227 3.358,5.567 4.57,10.02 H 76.947 C 75.383,22.415 71.381,14.76 64.935,8.862 58.529,2.962 50.305,0.016 40.267,0.014 27.846,0.014 18.079,3.999 10.971,11.967 3.861,19.975 0.306,30.95 0.306,44.897 c 0,15.077 4.043,26.699 12.129,34.863"
       style="fill:#ffffff;fill-opacity:1;fill-rule:nonzero;stroke:none"
       id="path35" /><path
       d="m 95.62,35.053 h 21.915 l -10.782,33.985 z m 1.114,53.731 h 20.39 L 147.71,2.417 h -19.57 l -5.566,17.754 H 90.757 L 84.781,2.417 H 65.913 l 30.821,86.367"
       style="fill:#ffffff;fill-opacity:1;fill-rule:evenodd;stroke:none"
       id="path37" /><path
       d="M 162.826,73.784 V 17.417 h 16.641 c 8.514,0 14.452,4.198 17.812,12.597 1.835,4.609 2.752,10.097 2.754,16.465 0,8.789 -1.388,15.527 -4.16,20.215 -2.736,4.726 -8.203,7.088 -16.406,7.09 z m 33.047,13.125 c 6.053,-1.992 10.955,-5.645 14.707,-10.957 3.007,-4.298 5.057,-8.947 6.152,-13.946 1.093,-5 1.639,-9.766 1.641,-14.296 0,-11.485 -2.305,-21.211 -6.914,-29.18 C 205.208,7.787 195.56,2.417 182.514,2.417 h -37.207 v 86.367 h 37.207 c 5.35,-0.079 9.803,-0.703 13.359,-1.875"
       style="fill:#ffffff;fill-opacity:1;fill-rule:evenodd;stroke:none"
       id="path39" /><path
       d="M 234.756,73.784 V 17.417 h 16.641 c 8.514,0 14.452,4.198 17.812,12.597 1.835,4.609 2.752,10.097 2.754,16.465 0,8.789 -1.388,15.527 -4.16,20.215 -2.736,4.726 -8.203,7.088 -16.406,7.09 z m 33.047,13.125 c 6.054,-1.992 10.955,-5.645 14.707,-10.957 3.007,-4.298 5.057,-8.947 6.152,-13.946 1.094,-5 1.639,-9.766 1.641,-14.296 0,-11.485 -2.305,-21.211 -6.914,-29.18 C 277.138,7.787 267.49,2.417 254.444,2.417 h -37.207 v 86.367 h 37.207 c 5.35,-0.079 9.803,-0.703 13.359,-1.875"
       style="fill:#ffffff;fill-opacity:1;fill-rule:evenodd;stroke:none"
       id="path41" /><path
       d="m 346.432,23.217 c 4.219,5.274 6.328,12.774 6.328,22.5 0,9.687 -2.109,17.167 -6.328,22.442 -4.18,5.312 -9.844,7.967 -16.992,7.969 -7.149,0 -12.852,-2.637 -17.11,-7.911 -4.259,-5.273 -6.386,-12.773 -6.386,-22.5 0,-9.726 2.127,-17.226 6.386,-22.5 4.258,-5.273 9.959,-7.91 17.11,-7.91 7.148,0 12.812,2.637 16.992,7.91 z M 357.741,10.092 C 351.216,3.372 341.783,0.016 329.44,0.014 c -12.345,0 -21.779,3.358 -28.301,10.078 -8.751,8.242 -13.125,20.116 -13.125,35.625 0,15.821 4.374,27.695 13.125,35.625 6.522,6.719 15.956,10.077 28.301,10.079 12.343,0 21.776,-3.36 28.301,-10.079 8.71,-7.93 13.064,-19.804 13.066,-35.625 0,-15.509 -4.356,-27.383 -13.066,-35.625"
       style="fill:#ffffff;fill-opacity:1;fill-rule:evenodd;stroke:none"
       id="path43" /><path
       d="m 380.365,79.76 c 7.032,7.109 15.977,10.663 26.837,10.664 14.531,0 25.155,-4.766 31.875,-14.296 3.709,-5.353 5.702,-10.723 5.976,-16.114 h -18.047 c -1.172,4.14 -2.677,7.264 -4.512,9.375 -3.281,3.75 -8.144,5.625 -14.589,5.625 -6.563,0 -11.739,-2.657 -15.528,-7.968 -3.79,-5.274 -5.683,-12.756 -5.683,-22.442 0,-9.688 1.992,-16.954 5.976,-21.797 4.023,-4.804 9.121,-7.207 15.293,-7.207 6.328,0 11.151,2.069 14.473,6.211 1.834,2.227 3.358,5.567 4.57,10.02 h 17.871 c -1.563,-9.416 -5.566,-17.071 -12.012,-22.969 -6.406,-5.9 -14.629,-8.846 -24.668,-8.848 -12.421,0 -22.188,3.985 -29.296,11.953 -7.11,8.008 -10.664,18.983 -10.664,32.93 0,15.077 4.043,26.699 12.128,34.863"
       style="fill:#ffffff;fill-opacity:1;fill-rule:nonzero;stroke:none"
       id="path45" /><path
       d="m 443.28,88.784 h 17.754 V 53.217 l 33.339,35.567 h 23.32 l -35.39,-35.567 37.207,-50.8 h -23.203 l -26.66,37.734 -8.613,-8.848 V 2.417 H 443.28 v 86.367"
       style="fill:#ffffff;fill-opacity:1;fill-rule:nonzero;stroke:none"
       id="path47" /></g></svg>
