<?xml version="1.0" encoding="UTF-8"?><svg id="Layer_2" xmlns="http://www.w3.org/2000/svg" viewBox="0 0 422.89 53.61"><defs><style>.cls-1{fill:#f15a22;}.cls-2{fill:#0b1524;}</style></defs><g id="Layer_1-2"><g><rect class="cls-2" x="86.95" width="12.56" height="52.01"/><polygon class="cls-1" points="99.96 28.1 118.99 52.02 134.9 52.02 115.04 28.49 130.03 13.5 114.55 13.5 99.96 28.1"/><path class="cls-2" d="M65.6,34.2c-.08,1.75,0,2.97-1.22,4.72-2.36,3.65-7.61,5.79-12.87,5.79-1.6,0-8.38-.08-8.38-4.95,0-3.73,3.81-4.57,4.72-4.8,3.5-.76,9.44-.76,17.74-.76m-20.72-10.56c1.45-2.51,6.04-2.84,9.91-2.84,11.04,0,10.89,3.65,10.81,6.93h-11.88c-12.1,.15-23.83,.3-23.83,12.49,0,6.17,4.11,10.2,9.52,11.72,2.89,.84,5.94,1.07,8.98,1.07,8.6,0,13.09-2.67,17.21-5.1,0,0,3.83,4.11,11.65,4.11h.99V29.18c0-8.07,.08-17.05-23.07-17.05-3.65,0-12.41,.08-17.66,3.35-4.09,2.63-5.08,5.89-5.5,8.18l12.87-.02Z"/><path class="cls-2" d="M156.97,20.96c8.75-.46,14.08,4.57,14.08,11.42,0,5.33-2.97,11.95-13.32,11.95-12.71,0-13.55-9.29-13.55-11.42,0-5.94,3.65-11.49,12.79-11.95m1.14-9.21c-15.38-.08-26.95,8.07-26.95,21.01s10.73,20.86,26.49,20.86c14.46,0,26.34-7.46,26.34-21.47,0-10.96-8.98-20.32-25.88-20.4"/><path class="cls-2" d="M192.77,17.83c-3.37,3.79-3.35,8.69-3.43,12.88v21.3h12.41V31.23c0-7.42,4.84-10.04,11.27-10.04s11.27,2.63,11.27,10.04v20.78h12.41V30.7c-.08-4.19-.1-9.04-3.43-12.87-1.52-1.75-4.91-5.48-20.26-5.48s-18.74,3.79-20.24,5.48"/><path class="cls-2" d="M28.75,12.51c-1.53-.1-3.22-.15-5.08-.15-15.88,0-18.73,3.79-20.24,5.48C.06,21.62,.08,26.53,0,30.71v21.3H12.41V31.23c0-7.42,4.84-10.04,11.27-10.04,1.86,0,3.52,.22,5.09,.7V12.51Z"/><path class="cls-1" d="M354.1,26.3c1.46,0,2.5,.46,3.12,1.38,.62,.92,.77,2.27,.45,4.05h-9.89c.58-1.75,1.41-3.09,2.5-4.03,1.09-.93,2.36-1.4,3.82-1.4m-46.76,14.17c1.72,0,3.19-.59,4.4-1.77,1.21-1.18,2.05-2.85,2.51-5.01,.47-2.22,.36-3.94-.35-5.16-.7-1.22-1.91-1.84-3.64-1.84s-3.23,.6-4.43,1.79-2.04,2.9-2.51,5.12c-.46,2.19-.35,3.88,.34,5.07,.69,1.2,1.91,1.79,3.66,1.79m-26.15-16.11l10.14-10.84h-15.64l5.49,10.84Zm127.19,.52l-2.32,3.72c-1.88-1.6-3.92-2.41-6.14-2.41-1.2,0-2.18,.22-2.94,.66-.76,.44-1.23,1.05-1.4,1.84-.12,.58-.02,1.07,.33,1.44,.34,.38,.96,.67,1.85,.88l3.45,.83c2.03,.47,3.43,1.2,4.21,2.21,.78,1.01,.99,2.33,.65,3.96-.42,1.98-1.56,3.56-3.41,4.72-1.85,1.17-4.15,1.75-6.89,1.75-1.9,0-3.59-.23-5.08-.7-1.49-.47-2.7-1.14-3.62-2.01l2.34-3.81c1.92,1.66,4.35,2.49,7.3,2.49,1.25,0,2.25-.2,3-.61,.74-.41,1.19-.99,1.36-1.75,.14-.64,.01-1.14-.36-1.49-.38-.35-1.12-.67-2.22-.96l-3.33-.79c-1.89-.44-3.21-1.15-3.96-2.14-.75-.99-.96-2.27-.62-3.85,.28-1.31,.9-2.47,1.85-3.48,.96-1.01,2.16-1.79,3.6-2.34s3.04-.83,4.79-.83c1.52,0,2.93,.23,4.25,.7,1.32,.47,2.42,1.12,3.32,1.97m-22.53,0l-2.32,3.72c-1.88-1.6-3.92-2.41-6.14-2.41-1.2,0-2.18,.22-2.94,.66-.76,.44-1.23,1.05-1.4,1.84-.12,.58-.02,1.07,.33,1.44,.34,.38,.96,.67,1.85,.88l3.45,.83c2.03,.47,3.43,1.2,4.21,2.21,.78,1.01,.99,2.33,.65,3.96-.42,1.98-1.56,3.56-3.41,4.72-1.85,1.17-4.15,1.75-6.89,1.75-1.9,0-3.59-.23-5.08-.7-1.49-.47-2.7-1.14-3.62-2.01l2.34-3.81c1.92,1.66,4.36,2.49,7.3,2.49,1.25,0,2.25-.2,3-.61,.74-.41,1.19-.99,1.36-1.75,.14-.64,.02-1.14-.36-1.49-.38-.35-1.12-.67-2.22-.96l-3.33-.79c-1.89-.44-3.21-1.15-3.96-2.14-.75-.99-.96-2.27-.62-3.85,.28-1.31,.9-2.47,1.85-3.48,.96-1.01,2.16-1.79,3.6-2.34s3.04-.83,4.79-.83c1.52,0,2.93,.23,4.25,.7,1.32,.47,2.42,1.12,3.32,1.97m-23.79,8.01l-.33,1.53h-14.57c-.25,1.98,.04,3.46,.85,4.42,.82,.96,2.17,1.44,4.07,1.44,2.36,0,4.68-.76,6.96-2.27l.78,3.76c-1.17,.82-2.55,1.47-4.16,1.97-1.61,.49-3.17,.74-4.69,.74-3.5,0-6.05-.99-7.66-2.98-1.61-1.98-2.04-4.69-1.31-8.14,.47-2.19,1.32-4.13,2.55-5.82,1.23-1.69,2.75-3,4.53-3.94,1.79-.93,3.69-1.4,5.7-1.4,2.95,0,5.07,.95,6.37,2.84,1.3,1.9,1.6,4.51,.89,7.83m-20.38-10.72l-.63,4.59-3.26,.31c-3.7,.38-5.9,2.22-6.6,5.51l-2.45,11.55h-5.47l4.55-21.39h5.21l-.8,3.76c1.65-2.57,4.24-3.97,7.76-4.2l1.69-.13Zm81.22,29.84V13.53h-125.01l-14.38,14.95,8.39,15.66h-6.56l-5.9-11.55-10.85,11.55h-6.56l15.11-15.7-7.99-14.91h-19.11V52.01h43.96l6.22-29.27h5.38l-.69,3.24c.9-1.2,2.02-2.12,3.37-2.78,1.35-.66,2.8-.99,4.34-.99,1.84,0,3.38,.47,4.62,1.4,1.25,.93,2.09,2.25,2.53,3.96,.44,1.71,.42,3.67-.05,5.88-.47,2.22-1.29,4.16-2.44,5.82-1.16,1.66-2.54,2.95-4.17,3.85-1.62,.9-3.37,1.36-5.23,1.36-1.52,0-2.81-.32-3.86-.96-1.06-.64-1.79-1.53-2.19-2.67l-2.37,11.16h123.43Z"/></g></g></svg>