<?xml version="1.0" encoding="UTF-8"?>
<svg width="117.15pt" height="63.5pt" version="1.1" viewBox="0 0 117.15 63.5" xmlns="http://www.w3.org/2000/svg">
 <g transform="translate(-81.882 -194.81)">
  <g>
   <path d="m155.67 198.89h10.108v24.432h-10.108z" fill="#3c3f3f"/>
   <path d="m118.67 227.39 2.3966-2.6964h11.662l-2.3975 2.6964zm3.6169-4.0687 2.6044-2.9278h11.662l-2.6026 2.9278zm21.721-9e-4 -2.6018-2.9269h11.661l2.6026 2.9269zm-17.896-4.3001 2.6026-2.9278h20.531l2.6026 2.9278zm3.823-4.3001 2.6044-2.9278h12.884l2.6008 2.9278zm2.6062-4.3001-2.6036-2.9278h18.086l-2.6018 2.9278zm-3.823-4.301-2.6036-2.9278h25.734l-2.6036 2.9278zm12.689-4.3001 2.6026-2.9278h11.662l-2.6036 2.9278zm-16.512 0-2.6026-2.9278h11.662l2.6036 2.9278zm20.337-4.301 2.4056-2.7028h11.662l-2.4065 2.7028z" fill="#b41749"/>
   <path d="m112.1 223.32v-13.76l-6.1358 13.757h-7.7909l-6.1331-13.757v13.757h-10.114v-24.429h14.089l6.0548 13.756 6.1314-13.756h14.088v24.432z" fill="#3c3f3f"/>
   <path d="m188.8 212.17v4.1912h-10.525v-10.587h10.525v4.0805h10.232v-7.0646c0-2.1582-1.7396-3.908-3.8842-3.908h-23.182c-2.1446 0-3.8851 1.7498-3.8851 3.908v16.617c0 2.1582 1.7405 3.908 3.8851 3.908h23.182c2.1446 0 3.8842-1.7498 3.8842-3.908v-7.237z" fill="#3c3f3f"/>
   <path d="m81.882 242.63c0.44277-4e-3 0.73076-0.0817 0.86305-0.23325 0.13319-0.15156 0.19979-0.37936 0.19979-0.6825v-5.4554c0-0.31493-0.0729-0.52368-0.21689-0.6226-0.14489-0.0998-0.40048-0.16518-0.76856-0.19513v-0.29224h2.851l2.2463 5.3184 0.09629 4e-3 2.2247-5.322h2.8591v0.29224c-0.38068 0.0299-0.63896 0.10165-0.77755 0.21509-0.13859 0.11345-0.20789 0.39299-0.20789 0.83679v5.0852c0 0.42384 0.0693 0.70065 0.20789 0.83225 0.13859 0.13069 0.39688 0.2042 0.77755 0.21963v0.29224h-3.7672v-0.29224c0.33928-0.0118 0.59487-0.0699 0.76586-0.17335 0.17189-0.10437 0.25738-0.33217 0.25738-0.6834v-5.6116h-0.0828l-2.7988 6.7606h-0.31138l-2.8222-6.6326-0.0504 8e-3v5.2022c0 0.38209 0.0702 0.66162 0.21059 0.83769 0.13949 0.17607 0.44997 0.27318 0.92965 0.29224v0.29224h-2.6854z" fill="#b41749"/>
   <path d="m92.66 242.72c0.19439-0.0136 0.35188-0.10346 0.46977-0.27046 0.07649-0.10528 0.18539-0.33671 0.32848-0.69429l1.7963-4.4807h0.22589l1.8107 4.2983c0.20339 0.48737 0.35548 0.80139 0.45628 0.94298 0.09989 0.14158 0.24299 0.20965 0.42747 0.2042v0.2042h-2.6269v-0.2042c0.26548-0.0118 0.43918-0.0336 0.52287-0.069 0.0837-0.0345 0.12509-0.12433 0.12509-0.26682 0-0.0644-0.0207-0.16337-0.063-0.29497-0.027-0.078-0.063-0.17244-0.10889-0.28225l-0.20969-0.50008h-1.808c-0.12239 0.32854-0.20069 0.54183-0.23669 0.64166-0.0711 0.21328-0.10619 0.36757-0.10619 0.46377 0 0.11889 0.0774 0.20511 0.23309 0.25866 0.09269 0.0299 0.23039 0.0454 0.41488 0.049v0.2042h-1.6514zm3.0391-1.7344-0.77396-1.8896h-0.0738l-0.72626 1.8896z" fill="#b41749"/>
   <path d="m102.54 237.48c0.34648 0.12706 0.53907 0.19059 0.57866 0.19059 0.1026 0 0.18539-0.0408 0.24749-0.12252 0.0621-0.0817 0.10079-0.167 0.11699-0.25775h0.22229v1.9095h-0.20249c-0.19529-0.41386-0.39508-0.73968-0.59846-0.97746-0.38068-0.43927-0.81086-0.6589-1.2914-0.6589-0.54357 0-0.92965 0.23597-1.1582 0.70882-0.22859 0.47375-0.34288 1.1082-0.34288 1.905 0 0.58539 0.0675 1.0673 0.20158 1.4458 0.25109 0.70973 0.71546 1.0637 1.3958 1.0637 0.41668 0 0.80366-0.11798 1.1627-0.35123 0.20519-0.13614 0.44727-0.35396 0.72716-0.65164l0.24118 0.2042c-0.31678 0.35577-0.59486 0.61262-0.83425 0.77235-0.42747 0.28407-0.90265 0.42566-1.4246 0.42566-0.79915 0-1.4696-0.2396-2.0105-0.71881-0.59846-0.52911-0.89815-1.2434-0.89815-2.1419 0-0.88852 0.28618-1.6091 0.86035-2.16 0.53817-0.51732 1.1987-0.77507 1.9808-0.77507 0.33838 0 0.68036 0.0626 1.0259 0.18968" fill="#b41749"/>
   <path d="m104.35 242.72c0.27179-0.0136 0.45718-0.0654 0.55617-0.15701 0.0999-0.0899 0.14939-0.2877 0.14939-0.59356v-3.623c0-0.31674-0.0594-0.52276-0.17639-0.61896-0.0792-0.0635-0.25468-0.1071-0.52917-0.1316v-0.20421h2.609c0.54087 0 0.97914 0.0572 1.3139 0.17153 0.64976 0.23144 0.97464 0.64801 0.97464 1.2497 0 0.44562-0.17099 0.79504-0.51117 1.051-0.26099 0.19059-0.53637 0.31312-0.82795 0.36757l1.7207 2.3243c0.045 0.0644 0.0927 0.10619 0.14219 0.12615 0.0504 0.02 0.11249 0.0327 0.18629 0.0381v0.2042h-1.6856l-1.8953-2.5621h-8e-3v1.6073c0 0.28861 0.0468 0.48374 0.1413 0.58358 0.0936 0.10074 0.28168 0.15519 0.56426 0.16699v0.2042h-2.7241zm3.1624-2.8471c0.22859-0.14158 0.34378-0.47194 0.34378-0.98926 0-0.31674-0.0432-0.56814-0.13139-0.75238-0.15119-0.3113-0.42658-0.4665-0.82706-0.4665-0.21778 0-0.35997 0.0272-0.42747 0.0808-0.0675 0.0554-0.10169 0.14521-0.10169 0.27046v2.0829c0.53276-8e-3 0.91434-0.0826 1.1438-0.22599" fill="#b41749"/>
   <path d="m115.27 238.07c0.55707 0.54636 0.83515 1.2488 0.83515 2.1092s-0.27808 1.5628-0.83515 2.1092c-0.54447 0.53184-1.2239 0.79776-2.0393 0.79776-0.86575 0-1.5722-0.29133-2.1185-0.874-0.50937-0.54908-0.76405-1.2116-0.76405-1.9894 0-0.85675 0.26728-1.5619 0.80005-2.1119 0.53907-0.55997 1.2329-0.83951 2.0825-0.83951 0.81895 0 1.4975 0.26592 2.0393 0.79867m-0.78655 3.653c0.12149-0.3948 0.18269-0.90939 0.18269-1.5438 0-0.87218-0.1287-1.5284-0.38698-1.9713-0.25829-0.4429-0.60837-0.66344-1.0502-0.66344-0.61466 0-1.0349 0.36848-1.2626 1.1072-0.11879 0.39207-0.17909 0.90122-0.17909 1.5274 0 0.63621 0.0612 1.1517 0.18269 1.5438 0.22499 0.72697 0.64437 1.0918 1.259 1.0918 0.60837 0 1.0268-0.36485 1.2545-1.0918" fill="#b41749"/>
   <path d="m116.52 242.72c0.29788-8e-3 0.48957-0.0663 0.57597-0.17425 0.0855-0.10891 0.12869-0.26774 0.12869-0.47921v-3.8826c-0.24389-0.28044-0.39508-0.44381-0.45177-0.49372-0.0576-0.0499-0.135-0.0808-0.23399-0.0944v-0.20421h1.709l2.7907 3.4243h0.0405v-2.4114c0-0.27772-0.0495-0.47557-0.14939-0.59356-0.099-0.11889-0.29698-0.19059-0.59487-0.21509v-0.20421h1.7387v0.20421c-0.25288 0.0426-0.42297 0.0998-0.50937 0.17153-0.0855 0.0717-0.12779 0.23143-0.12779 0.48102v4.831h-0.22679l-3.5719-4.3827h-0.0558v3.2137c0 0.25321 0.0351 0.4311 0.10349 0.53547 0.1098 0.16972 0.33208 0.26048 0.66956 0.27409v0.2042h-1.835z" fill="#b41749"/>
   <path d="m122.38 242.72c0.23039-5e-3 0.39598-0.0336 0.49677-0.0844 0.16469-0.0853 0.24659-0.24777 0.24659-0.491v-3.9743c0-0.2396-0.0783-0.40115-0.23399-0.48283-0.0954-0.0508-0.26548-0.0817-0.50937-0.0917v-0.20421h2.8393v0.20421c-0.25379 0.01-0.42928 0.039-0.52467 0.0871-0.15839 0.0826-0.23849 0.24505-0.23849 0.48737v3.9743c0 0.22961 0.0639 0.38209 0.19169 0.45923 0.12689 0.0771 0.31768 0.11617 0.57147 0.11617v0.2042h-2.8393z" fill="#b41749"/>
   <path d="m125.54 242.72c0.20519-0.0372 0.35368-0.0762 0.44277-0.11617 0.1449-0.0663 0.27809-0.17879 0.39958-0.33671l1.376-1.8079-1.5605-2.3869c-0.11789-0.17426-0.22229-0.29406-0.31228-0.36304-0.0891-0.0672-0.20159-0.10527-0.33568-0.11344v-0.20421h2.8051v0.20421c-0.26099 0.0136-0.43468 0.0354-0.52017 0.0644-0.0864 0.029-0.12869 0.0971-0.12869 0.20602 0 0.049 0.01 0.0962 0.0315 0.14067 0.0207 0.0445 0.0513 0.098 0.0909 0.15883l0.77305 1.1835c0.45088-0.59174 0.72086-0.96022 0.81086-1.1054 0.0891-0.14431 0.13409-0.26411 0.13409-0.3594 0-0.11799-0.0657-0.19785-0.19709-0.24051-0.0774-0.0236-0.20879-0.0399-0.39598-0.0481v-0.20421h2.0249v0.20421c-0.35008 0.0372-0.62727 0.16608-0.83066 0.38844-0.20338 0.22236-0.64886 0.78415-1.3346 1.6881l1.5038 2.3016c0.18269 0.32038 0.31769 0.52004 0.40408 0.59628 0.0864 0.0771 0.20069 0.12706 0.34378 0.14975v0.2042h-2.7529v-0.2042c0.23759-0.0118 0.39508-0.0272 0.47157-0.049 0.1179-0.0345 0.17729-0.10346 0.17729-0.20693 0-0.0408-0.0117-0.0962-0.0369-0.16699-0.0252-0.0708-0.0693-0.15701-0.13229-0.25775l-0.82255-1.2579-0.30598 0.39117c-0.25829 0.33399-0.43288 0.56724-0.52377 0.69974-0.15299 0.23688-0.23039 0.40478-0.23039 0.50371 0 0.1434 0.0936 0.24323 0.28168 0.29496 0.1053 0.0327 0.23129 0.049 0.37618 0.049v0.2042h-2.0267z" fill="#b41749"/>
   <path d="m81.921 255.95c0.32308-7e-3 0.55617-0.0481 0.69746-0.1198 0.23039-0.12162 0.34558-0.35396 0.34558-0.69793v-5.5535c0-0.34125-0.10979-0.57178-0.32848-0.68795-0.13409-0.0708-0.37258-0.11435-0.71456-0.12978v-0.29224h3.9796v0.29224c-0.35458 0.0154-0.59756 0.0572-0.73076 0.12434-0.22139 0.11707-0.33208 0.34851-0.33208 0.69339v5.5535c0 0.32492 0.08909 0.54273 0.26638 0.65255 0.17639 0.10982 0.44188 0.16518 0.79645 0.16518v0.29224h-3.9796z" fill="#b41749"/>
   <path d="m86.312 256.04c0.29788-8e-3 0.48957-0.0662 0.57597-0.17425 0.0855-0.10801 0.12959-0.26774 0.12959-0.47921v-3.8826c-0.24479-0.28044-0.39508-0.44381-0.45267-0.49372-0.0567-0.0499-0.13499-0.0808-0.23309-0.0935v-0.20512h1.7081l2.7916 3.4243h0.0396v-2.4114c0-0.27681-0.0495-0.47557-0.14939-0.59356-0.09809-0.11889-0.29698-0.19059-0.59487-0.21418v-0.20512h1.7387v0.20512c-0.25289 0.0417-0.42298 0.0989-0.50847 0.17062-0.0855 0.0717-0.12869 0.23143-0.12869 0.48102v4.8319h-0.22679l-3.5719-4.3836h-0.0549v3.2137c0 0.25321 0.0342 0.4311 0.10349 0.53547 0.10889 0.16972 0.33208 0.26048 0.66866 0.27409v0.20511h-1.835z" fill="#b41749"/>
   <path d="m92.255 250.71h4.8525l0.0072 1.6464h-0.23129c-0.0756-0.58993-0.29338-0.98745-0.65246-1.1962-0.20159-0.11436-0.50217-0.17698-0.90265-0.18696v4.3137c0 0.30132 0.0513 0.50189 0.15299 0.59991 0.10259 0.0998 0.31498 0.14794 0.63896 0.14794v0.20874h-2.878v-0.20874c0.31858 0 0.52917-0.049 0.63446-0.14975 0.10439-0.0998 0.15749-0.2995 0.15749-0.5981v-4.3137c-0.39328 0.01-0.69386 0.0726-0.90355 0.18696-0.38518 0.21419-0.60207 0.61261-0.65246 1.1962h-0.23129z" fill="#b41749"/>
   <path d="m97.579 256.24v-0.20511c0.23309-7e-3 0.39868-0.0399 0.49767-0.0953 0.15119-0.0853 0.22679-0.24504 0.22679-0.4792v-3.9743c0-0.23779-0.07829-0.39752-0.23489-0.48011-0.0909-0.049-0.25378-0.0808-0.48957-0.0944v-0.20511h4.6743v1.6464h-0.20698c-0.1026-0.52731-0.27719-0.88762-0.52287-1.0818-0.24659-0.19422-0.69386-0.29133-1.3436-0.29133-0.24748 0-0.40498 0.0254-0.47157 0.0781-0.0675 0.0517-0.10079 0.15429-0.10079 0.30949v1.8914c0.45987 6e-3 0.77125-0.078 0.93414-0.25049 0.16289-0.17335 0.28799-0.48919 0.37438-0.94661h0.20789v2.7463h-0.20789c-0.0585-0.46468-0.17549-0.79231-0.35278-0.98109-0.17729-0.19059-0.49587-0.28589-0.95574-0.28589v1.9876c0 0.17244 0.0441 0.29133 0.13229 0.35395 0.08819 0.0626 0.26998 0.0944 0.54447 0.0944 0.51747 0 0.93954-0.10074 1.2671-0.30404 0.32759-0.20239 0.61737-0.58175 0.87115-1.1381h0.22769l-0.32848 1.7053z" fill="#b41749"/>
   <path d="m102.99 256.04c0.27178-0.0136 0.45718-0.0653 0.55617-0.15701 0.0999-0.0899 0.14939-0.2877 0.14939-0.59356v-3.623c0-0.31674-0.0594-0.52185-0.17639-0.61896-0.0783-0.0635-0.25469-0.1071-0.52917-0.13069v-0.20512h2.609c0.54087 0 0.97914 0.0572 1.3139 0.17153 0.64977 0.23144 0.97465 0.64801 0.97465 1.2497 0 0.44562-0.17099 0.79504-0.51117 1.051-0.26099 0.1915-0.53727 0.31312-0.82795 0.36757l1.7207 2.3243c0.0441 0.0644 0.0927 0.10619 0.14219 0.12615 0.0504 0.0209 0.11249 0.0327 0.18629 0.0381v0.20511h-1.6856l-1.8953-2.563h-8e-3v1.6073c0 0.28861 0.0468 0.48374 0.1413 0.58358 0.0936 0.10074 0.28168 0.15519 0.56426 0.16699v0.20511h-2.7241zm3.1624-2.8471c0.22948-0.14158 0.34378-0.47194 0.34378-0.98835 0-0.31765-0.0432-0.56815-0.13139-0.75329-0.15119-0.31039-0.42658-0.4665-0.82706-0.4665-0.21778 0-0.35997 0.0272-0.42747 0.0817-0.0675 0.0544-0.10169 0.1443-0.10169 0.26955v2.0829c0.53366-7e-3 0.91434-0.0826 1.1438-0.22599" fill="#b41749"/>
   <path d="m108.85 256.04c0.29789-8e-3 0.48957-0.0662 0.57597-0.17425 0.0864-0.10801 0.12959-0.26774 0.12959-0.47921v-3.8826c-0.24478-0.28044-0.39508-0.44381-0.45267-0.49372-0.0567-0.0499-0.13499-0.0808-0.23309-0.0935v-0.20512h1.7081l2.7916 3.4243h0.0396v-2.4114c0-0.27681-0.0495-0.47557-0.14939-0.59356-0.099-0.11889-0.29698-0.19059-0.59397-0.21418v-0.20512h1.7378v0.20512c-0.25288 0.0417-0.42297 0.0989-0.50847 0.17062-0.0855 0.0717-0.12869 0.23143-0.12869 0.48102v4.8319h-0.22679l-3.5719-4.3836h-0.0549v3.2137c0 0.25321 0.0342 0.4311 0.10349 0.53547 0.1089 0.16972 0.33209 0.26048 0.66957 0.27409v0.20511h-1.8359z" fill="#b41749"/>
   <path d="m114.72 256.04c0.19529-0.0136 0.35188-0.10346 0.46978-0.27046 0.0765-0.10528 0.18629-0.33671 0.32848-0.69429l1.7963-4.4807h0.22679l1.8098 4.2983c0.20338 0.48828 0.35638 0.80139 0.45627 0.94298 0.0999 0.14158 0.24299 0.20965 0.42748 0.2042v0.20511h-2.627v-0.20511c0.26548-0.0118 0.44007-0.0336 0.52287-0.069 0.0837-0.0345 0.12599-0.12433 0.12599-0.26682 0-0.0644-0.0216-0.16337-0.0639-0.29497-0.0261-0.078-0.063-0.17244-0.10889-0.28225l-0.20969-0.50008h-1.8071c-0.12239 0.32854-0.20159 0.54183-0.23668 0.64166-0.0711 0.21328-0.1071 0.36757-0.1071 0.46377 0 0.11889 0.0783 0.20511 0.23309 0.25866 0.0927 0.0299 0.23038 0.0454 0.41487 0.049v0.20511h-1.6514zm3.04-1.7344-0.77486-1.8896h-0.0738l-0.72626 1.8896z" fill="#b41749"/>
   <path d="m120.05 250.71h4.8525l8e-3 1.6464h-0.23219c-0.0756-0.58993-0.29338-0.98745-0.65156-1.1962-0.20159-0.11436-0.50307-0.17698-0.90355-0.18696v4.3137c0 0.30132 0.0513 0.50189 0.15299 0.59991 0.10259 0.0998 0.31588 0.14794 0.63896 0.14794v0.20874h-2.878v-0.20874c0.31858 0 0.53007-0.049 0.63446-0.14975 0.1044-0.0998 0.15749-0.2995 0.15749-0.5981v-4.3137c-0.39327 0.01-0.69386 0.0726-0.90354 0.18696-0.38518 0.21419-0.60207 0.61261-0.65157 1.1962h-0.23218z" fill="#b41749"/>
   <path d="m125.37 256.04c0.23039-5e-3 0.39598-0.0336 0.49677-0.0844 0.16469-0.0844 0.24659-0.24777 0.24659-0.491v-3.9743c0-0.2396-0.0783-0.40115-0.23489-0.48283-0.0945-0.0499-0.26458-0.0817-0.50847-0.0907v-0.20512h2.8393v0.20512c-0.25469 9e-3 -0.42838 0.039-0.52467 0.0862-0.15929 0.0826-0.23759 0.24505-0.23759 0.48737v3.9743c0 0.22961 0.063 0.38209 0.19079 0.45923 0.12689 0.0771 0.31678 0.11617 0.57147 0.11617v0.20511h-2.8393z" fill="#b41749"/>
   <path d="m133.58 251.39c0.55707 0.54636 0.83515 1.2488 0.83515 2.1092s-0.27808 1.5628-0.83515 2.1092c-0.54447 0.53184-1.2239 0.79776-2.0393 0.79776-0.86575 0-1.5722-0.29133-2.1185-0.874-0.50937-0.54908-0.76406-1.2116-0.76406-1.9894 0-0.85675 0.26729-1.5619 0.80006-2.1119 0.53907-0.55997 1.2329-0.83951 2.0825-0.83951 0.81895 0 1.4975 0.26592 2.0393 0.79867m-0.78655 3.6521c0.12149-0.39389 0.18268-0.90939 0.18268-1.5429 0-0.87218-0.12869-1.5284-0.38697-1.9713-0.25829-0.4429-0.60837-0.66344-1.0502-0.66344-0.61377 0-1.0349 0.36848-1.2626 1.1072-0.11879 0.39207-0.17909 0.90122-0.17909 1.5274 0 0.63621 0.0612 1.1517 0.18359 1.5429 0.22499 0.72788 0.64436 1.0927 1.2581 1.0927 0.60836 0 1.0268-0.36485 1.2545-1.0927" fill="#b41749"/>
   <path d="m134.84 256.04c0.29698-8e-3 0.48957-0.0662 0.57597-0.17425 0.0855-0.10801 0.12959-0.26774 0.12959-0.47921v-3.8826c-0.24479-0.28044-0.39508-0.44381-0.45267-0.49372-0.0567-0.0499-0.135-0.0808-0.23399-0.0935v-0.20512h1.709l2.7916 3.4243h0.0396v-2.4114c0-0.27681-0.0495-0.47557-0.14939-0.59356-0.099-0.11889-0.29699-0.19059-0.59397-0.21418v-0.20512h1.7378v0.20512c-0.25289 0.0417-0.42298 0.0989-0.50847 0.17062-0.0855 0.0717-0.12869 0.23143-0.12869 0.48102v4.8319h-0.22679l-3.5719-4.3836h-0.0549v3.2137c0 0.25321 0.0342 0.4311 0.10349 0.53547 0.108 0.16972 0.33118 0.26048 0.66866 0.27409v0.20511h-1.835z" fill="#b41749"/>
   <path d="m140.71 256.04c0.19529-0.0136 0.35188-0.10346 0.46977-0.27046 0.0765-0.10528 0.18629-0.33671 0.32848-0.69429l1.7963-4.4807h0.22589l1.8107 4.2983c0.20339 0.48828 0.35548 0.80139 0.45628 0.94298 0.0999 0.14158 0.24298 0.20965 0.42747 0.2042v0.20511h-2.627v-0.20511c0.26549-0.0118 0.43918-0.0336 0.52287-0.069 0.0837-0.0345 0.126-0.12433 0.126-0.26682 0-0.0644-0.0216-0.16337-0.0639-0.29497-0.027-0.078-0.063-0.17244-0.10889-0.28225l-0.20969-0.50008h-1.808c-0.12239 0.32854-0.20069 0.54183-0.23668 0.64166-0.0711 0.21328-0.1062 0.36757-0.1062 0.46377 0 0.11889 0.0774 0.20511 0.23309 0.25866 0.0927 0.0299 0.23039 0.0454 0.41487 0.049v0.20511h-1.6514zm3.04-1.7344-0.77485-1.8896h-0.0729l-0.72715 1.8896z" fill="#b41749"/>
   <path d="m146.58 256.04c0.21779-8e-3 0.37348-0.0372 0.46797-0.0889 0.15749-0.0844 0.23669-0.24777 0.23669-0.48828v-3.9725c0-0.23687-0.0747-0.39661-0.22589-0.4792-0.0882-0.0499-0.24748-0.0817-0.47877-0.0944v-0.20512h2.8204v0.20512c-0.32938 9e-3 -0.54807 0.0563-0.65696 0.13885-0.1098 0.0826-0.1638 0.28589-0.1638 0.6108v3.8663c0 0.18243 0.0459 0.30223 0.1404 0.36031 0.0936 0.059 0.27628 0.089 0.54896 0.089 0.48778 0 0.89815-0.10891 1.2293-0.32492 0.33208-0.216 0.61737-0.63802 0.85765-1.2634h0.23669l-0.32848 1.8515h-4.6842z" fill="#b41749"/>
   <path d="m160.55 248.57c0.48597 0.17516 0.75776 0.2632 0.81265 0.2632 0.14579 0 0.26099-0.0563 0.34828-0.16972 0.0873-0.11435 0.14219-0.23234 0.16469-0.35668h0.30869v2.6892h-0.28889c-0.27448-0.58084-0.55347-1.0383-0.83875-1.3732-0.53277-0.61806-1.1366-0.92573-1.8098-0.92573-0.76226 0-1.304 0.33217-1.6235 0.99743-0.32038 0.66616-0.48057 1.5583-0.48057 2.6792 0 0.82499 0.0936 1.5038 0.28258 2.0357 0.35188 0.99652 1.0052 1.4957 1.9601 1.4957 0.58406 0 1.1285-0.16518 1.6316-0.49554 0.28799-0.19059 0.62817-0.49553 1.0205-0.91574l0.34018 0.28135c-0.44457 0.5028-0.83605 0.86673-1.1735 1.0918-0.60026 0.40206-1.268 0.60263-2.0015 0.60263-1.124 0-2.0654-0.33761-2.8258-1.0128-0.84145-0.74512-1.2626-1.7507-1.2626-3.0141 0-1.2534 0.40318-2.268 1.2086-3.0449 0.75776-0.72788 1.6856-1.0909 2.7853-1.0909 0.47428 0 0.95575 0.088 1.4417 0.2632" fill="#b41749"/>
   <path d="m168.11 251.39c0.55707 0.54636 0.83515 1.2488 0.83515 2.1092s-0.27808 1.5628-0.83515 2.1092c-0.54357 0.53184-1.2239 0.79776-2.0393 0.79776-0.86575 0-1.5722-0.29133-2.1185-0.874-0.50937-0.54908-0.76406-1.2116-0.76406-1.9894 0-0.85675 0.26639-1.5619 0.80006-2.1119 0.53817-0.55997 1.2329-0.83951 2.0825-0.83951 0.81805 0 1.4975 0.26592 2.0393 0.79867m-0.78655 3.6521c0.12149-0.39389 0.18268-0.90939 0.18268-1.5429 0-0.87218-0.12959-1.5284-0.38697-1.9713-0.25829-0.4429-0.60837-0.66344-1.0502-0.66344-0.61467 0-1.0349 0.36848-1.2626 1.1072-0.11969 0.39207-0.17909 0.90122-0.17909 1.5274 0 0.63621 0.0612 1.1517 0.18269 1.5429 0.22499 0.72788 0.64436 1.0927 1.259 1.0927 0.60836 0 1.0268-0.36485 1.2545-1.0927" fill="#b41749"/>
   <path d="m169.94 254.75c0.18629-0.18787 0.41218-0.28226 0.67676-0.28226 0.26549 0 0.49137 0.0944 0.67676 0.28226 0.18629 0.18787 0.27989 0.41567 0.27989 0.6825 0 0.26773-0.0936 0.49554-0.27989 0.6825-0.18539 0.18787-0.41127 0.28135-0.67676 0.28135-0.26458 0-0.49047-0.0935-0.67676-0.28135-0.18629-0.18696-0.27898-0.41477-0.27898-0.6825 0-0.26683 0.0927-0.49463 0.27898-0.6825" fill="#b41749"/>
   <path d="m172.59 258.06c0.34918-0.24142 0.61106-0.45197 0.78745-0.63258 0.31139-0.31402 0.46708-0.60899 0.46708-0.88761 0-0.0799-0.0189-0.1434-0.0567-0.19241-0.0405-0.0445-0.099-0.0681-0.17369-0.0681-0.0378 0-0.0855 6e-3 -0.14129 0.02-0.0558 0.0127-0.0954 0.0191-0.11789 0.0191-0.22859 0-0.42658-0.0808-0.59307-0.24232-0.16739-0.16065-0.25019-0.37937-0.25019-0.65255 0-0.28952 0.0864-0.52367 0.25919-0.70519 0.17279-0.1797 0.39958-0.26955 0.67856-0.26955 0.34288 0 0.62276 0.12071 0.84055 0.36303 0.21779 0.24142 0.32668 0.56451 0.32668 0.96929 0 0.61897-0.24568 1.1817-0.73615 1.6881-0.26819 0.26955-0.65337 0.5509-1.1555 0.84314z" fill="#b41749"/>
   <path d="m178.02 255.95c0.30508-0.0118 0.52287-0.0526 0.65336-0.12434 0.22139-0.1198 0.33208-0.3476 0.33208-0.68431v-5.5625c0-0.33853-0.10619-0.56633-0.31588-0.6825-0.12419-0.0717-0.34648-0.11617-0.66956-0.13523v-0.29224h3.9598v0.29224c-0.46437 0.0154-0.77395 0.0808-0.92784 0.19604-0.1539 0.11617-0.23129 0.40024-0.23129 0.85584v5.4119c0 0.25412 0.0657 0.42202 0.19799 0.50461 0.13229 0.0826 0.39057 0.12343 0.77305 0.12343 0.68846 0 1.2662-0.15066 1.7333-0.45379 0.46618-0.30222 0.86935-0.89215 1.2077-1.768h0.33838l-0.46347 2.6111h-6.5876z" fill="#b41749"/>
   <path d="m185.61 250.71h4.8525l7e-3 1.6464h-0.23128c-0.0756-0.58993-0.29339-0.98745-0.65157-1.1962-0.20249-0.11436-0.50307-0.17698-0.90354-0.18696v4.3137c0 0.30132 0.0513 0.50189 0.15298 0.59991 0.1026 0.0998 0.31589 0.14794 0.63897 0.14794v0.20874h-2.878v-0.20874c0.31857 0 0.53007-0.049 0.63447-0.14975 0.10438-0.0998 0.15748-0.2995 0.15748-0.5981v-4.3137c-0.39238 0.01-0.69385 0.0726-0.90355 0.18696-0.38427 0.21419-0.60207 0.61261-0.65156 1.1962h-0.23218z" fill="#b41749"/>
   <path d="m190.92 256.04c0.2052-0.0136 0.35368-0.0436 0.44547-0.0898 0.1602-0.0826 0.2403-0.23416 0.2403-0.4556v-4.0333c0-0.21237-0.0765-0.36031-0.2286-0.4438-0.0882-0.049-0.24117-0.0826-0.45717-0.10074v-0.20512h2.4794c1.0007 0 1.7639 0.26955 2.2895 0.80775 0.47788 0.49009 0.71726 1.1481 0.71726 1.974 0 0.74149-0.24028 1.3686-0.72085 1.8841-0.54177 0.57722-1.2761 0.86764-2.2022 0.86764h-2.563zm2.0915-0.18061c0.054 0.0753 0.16919 0.11254 0.34468 0.11254 0.47877 0 0.87115-0.17244 1.1789-0.51459 0.30688-0.34216 0.46077-1.002 0.46077-1.9758 0-0.57904-0.0828-1.0764-0.24838-1.493-0.26819-0.66979-0.71996-1.0038-1.3553-1.0038-0.21059 0-0.34738 0.0454-0.41038 0.13523-0.0414 0.059-0.0621 0.17244-0.0621 0.34034v4.0351c7e-3 0.16791 0.0387 0.28952 0.0918 0.36394" fill="#b41749"/>
   <path d="m197.37 254.75c0.18629-0.18787 0.41218-0.28226 0.67766-0.28226 0.26459 0 0.49047 0.0944 0.67676 0.28226 0.18629 0.18787 0.27899 0.41567 0.27899 0.6825 0 0.26773-0.0927 0.49554-0.27899 0.6825-0.18629 0.18787-0.41217 0.28135-0.67676 0.28135-0.26548 0-0.49137-0.0935-0.67766-0.28135-0.18629-0.18696-0.27898-0.41477-0.27898-0.6825 0-0.26683 0.0927-0.49463 0.27898-0.6825" fill="#b41749"/>
  </g>
 </g>
</svg>
