<svg xmlns="http://www.w3.org/2000/svg" height="800" width="1200" version="1.0" viewBox="-26.35638 -7.001475 228.42196 42.00885"><path d="M54.4574 5.045v17.5662h3.5488V9.3687c.1575 0 .2312.0537.3637.2l9.4213 11.0625c1.4762 1.7887 2.5312 1.98 5.045 1.98h3.7975V5.0449l-3.5388-.005v13.155c-.1512 0-.2312-.05-.35-.1987L63.59 7.2737c-1.4287-1.65-2.255-2.2288-5.95-2.2288zm-14.3201 2.5l8.93.015c.4413 0 .7513-.145.9638-.5426l1.0575-1.9725h-12.79c-5.6638 0-8.4263 2.0563-8.4263 6.2788v4.8562c0 4.5213 2.8375 6.4313 8.4325 6.4313h11.0988c.415 0 .7275-.11.9412-.525l1.03-1.9963H40.1261c-2.9475 0-4.0088-.9725-4.0088-2.9775v-2.36h11.6775c.4388 0 .745-.1325.9638-.535l1.0525-1.9937H36.1173v-1.4313c0-1.705.3988-3.2475 4.02-3.2475m50.7325.0001l8.9225.015c.4463 0 .7675-.145.9863-.5426l1.0375-1.9725H89.031c-5.6575 0-8.4425 2.0563-8.4425 6.2788v4.8562c0 4.5213 2.8587 6.4313 8.4637 6.4313h11.0913c.4162 0 .74-.11.955-.525l1.0375-1.9963H90.8698c-2.97 0-4.0087-.9725-4.0087-2.9775v-2.36h11.6662c.4325 0 .745-.1325.95-.535l1.06-1.9937H86.8611v-1.4313c0-1.705.365-3.2475 4.0087-3.2475m25.6286 9.1161c2.4225.7938 3.1363 1.135 3.1363 2.0625 0 .7938-.4513 1.38-3.4938 1.38l-10.3162-.0137c-.445 0-.7688.1325-.9863.5412l-1.0437 1.98h14.6612c5.9138 0 8.135-1.8625 8.135-4.4125 0-1.4887-.8525-3.4462-6.3987-5.2775l-5.855-1.91c-2.4113-.7975-3.1163-1.1475-3.1163-2.055 0-.7475.405-1.4112 3.4788-1.4112l8.7287.015c.4388 0 .7413-.1438.9563-.5425l1.0637-1.97h-13.0762c-5.895 0-8.1113 1.8437-8.1113 4.4087 0 1.4925.83 3.4713 6.4125 5.2963zm52.8333-3.745l-5.8563-1.9088c-2.3875-.7938-3.1275-1.1463-3.1275-2.0538 0-.7375.4738-1.4087 3.4738-1.4087l8.7262.015c.4325 0 .7388-.1438.965-.5438l1.055-1.9712h-13.0287c-5.9475 0-8.1188 1.8412-8.1188 4.4112 0 1.4925.8388 3.47 6.3575 5.2963l5.855 1.9087c2.4088.7938 3.1525 1.14 3.1525 2.06 0 .7275-.48 1.3825-3.525 1.3825l-11.8625-.0175-9.1987-15.0412h-3.5125c-2.7238 0-4.0863.7587-5.3575 2.8225l-9.0225 14.7437h6.1012l7.4288-13.1412c.1837-.32.3312-.3063.4762-.3063l6.2063 10.9225h-6.74c-.4413 0-.7438.1325-.945.545l-1.0475 1.98h29.8012c5.9113 0 8.1213-1.8662 8.1213-4.4162 0-1.485-.8463-3.445-6.3775-5.2788M1.2513 21.7752h8.1975v-8.2138H1.2513z" fill="#2f409a"/><path d="M.9943 3.2675c-.3.1525-.7662.4975-.8437.8988 0 0-.145.8525-.145.8737-.05.31.25.2363.375.1588 1.2812-.755 2.705-1.44 4.0075-1.8388 6.1312-1.8525 13.9137-1.9012 15.2712 2.105.9575 2.7775-2.9362 5.0938-5.1312 6.1275-.8475.3975-1.1313.7763-1.1888 1.18-.0475.3638.0775.8975.5663 1.62 3.0787 4.6175 12.23 11.2363 21.2087 13.5525.3738.1.5575.0663.71-.025.0838-.0475.1888-.1137.0275-.195-5.9637-3.1337-11.66-8.3887-14.5087-12.4475-.6513-.9375-.8188-1.5637-.7763-2.0687.0413-.4363.4438-.8175 1.3013-1.2188 3.185-1.4762 6.4325-3.725 5.4625-7.465C25.9168-.8537 10.6943-1.6425.9943 3.2675" fill="#2f409a"/></svg>