<?xml version="1.0" encoding="UTF-8"?>
<!-- Created with Inkscape (http://www.inkscape.org/) -->
<svg width="1319.8" height="635.2" version="1.1" viewBox="0 0 1319.8 635.2" xmlns="http://www.w3.org/2000/svg" xmlns:xlink="http://www.w3.org/1999/xlink">
 <defs>
  <linearGradient id="linear1" x1="-.67343" x2="1.4346" gradientTransform="matrix(0 295.52 -295.52 0 797.69 211.26)" gradientUnits="userSpaceOnUse">
   <stop stop-color="#441855" offset="0"/>
   <stop stop-color="#441855" offset=".25"/>
   <stop stop-color="#441855" offset=".3125"/>
   <stop stop-color="#451956" offset=".32031"/>
   <stop stop-color="#4a1d5a" offset=".32422"/>
   <stop stop-color="#4e205d" offset=".32812"/>
   <stop stop-color="#522561" offset=".33203"/>
   <stop stop-color="#552964" offset=".33594"/>
   <stop stop-color="#592f68" offset=".33984"/>
   <stop stop-color="#5c356d" offset=".34375"/>
   <stop stop-color="#603b71" offset=".34766"/>
   <stop stop-color="#644175" offset=".35156"/>
   <stop stop-color="#684678" offset=".35547"/>
   <stop stop-color="#6b4b7c" offset=".35938"/>
   <stop stop-color="#705181" offset=".36328"/>
   <stop stop-color="#755786" offset=".36719"/>
   <stop stop-color="#7c5e8b" offset=".37109"/>
   <stop stop-color="#826490" offset=".375"/>
   <stop stop-color="#896b96" offset=".37891"/>
   <stop stop-color="#8f729c" offset=".38281"/>
   <stop stop-color="#947ba1" offset=".38672"/>
   <stop stop-color="#9983a6" offset=".39062"/>
   <stop stop-color="#9e8cab" offset=".39453"/>
   <stop stop-color="#a495b0" offset=".39844"/>
   <stop stop-color="#ab9fb6" offset=".40234"/>
   <stop stop-color="#b2a9bc" offset=".40625"/>
   <stop stop-color="#bab4c3" offset=".41016"/>
   <stop stop-color="#c3bfca" offset=".41406"/>
   <stop stop-color="#cfccd4" offset=".41797"/>
   <stop stop-color="#dbd9de" offset=".42188"/>
   <stop stop-color="#e8e8ea" offset=".42578"/>
   <stop stop-color="#f6f7f7" offset=".42969"/>
   <stop stop-color="#fafbfb" offset=".43359"/>
   <stop stop-color="#fff" offset=".4375"/>
   <stop stop-color="#fff" offset=".5"/>
   <stop stop-color="#fff" offset=".625"/>
   <stop stop-color="#fff" offset=".6875"/>
   <stop stop-color="#fff" offset=".69531"/>
   <stop stop-color="#f8f8f9" offset=".69922"/>
   <stop stop-color="#f2f2f3" offset=".70312"/>
   <stop stop-color="#e2e0e4" offset=".70703"/>
   <stop stop-color="#d1ced5" offset=".71094"/>
   <stop stop-color="#c5c0cc" offset=".71484"/>
   <stop stop-color="#b8b2c2" offset=".71875"/>
   <stop stop-color="#b0a6ba" offset=".72266"/>
   <stop stop-color="#a79ab3" offset=".72656"/>
   <stop stop-color="#a08eac" offset=".73047"/>
   <stop stop-color="#9983a6" offset=".73438"/>
   <stop stop-color="#937aa0" offset=".73828"/>
   <stop stop-color="#8d709a" offset=".74219"/>
   <stop stop-color="#856893" offset=".74609"/>
   <stop stop-color="#7d5f8c" offset=".75"/>
   <stop stop-color="#765886" offset=".75391"/>
   <stop stop-color="#6f5181" offset=".75781"/>
   <stop stop-color="#6a4a7b" offset=".76172"/>
   <stop stop-color="#664376" offset=".76562"/>
   <stop stop-color="#613c71" offset=".76953"/>
   <stop stop-color="#5c356d" offset=".77344"/>
   <stop stop-color="#582e68" offset=".77734"/>
   <stop stop-color="#542763" offset=".78125"/>
   <stop stop-color="#4f225f" offset=".78516"/>
   <stop stop-color="#4b1d5b" offset=".78906"/>
   <stop stop-color="#481b58" offset=".79297"/>
   <stop stop-color="#441855" offset=".79688"/>
   <stop stop-color="#441855" offset=".8125"/>
   <stop stop-color="#441855" offset=".875"/>
   <stop stop-color="#441855" offset="1"/>
  </linearGradient>
  <linearGradient id="linearGradient38832" x1="-.71476" x2="1.4345" gradientTransform="matrix(0 295.55 -295.55 0 869.7 211.24)" gradientUnits="userSpaceOnUse">
   <stop stop-color="#54296d" offset="0"/>
   <stop stop-color="#54296d" offset=".25"/>
   <stop stop-color="#54296d" offset=".3125"/>
   <stop stop-color="#54296d" offset=".32812"/>
   <stop stop-color="#562c6f" offset=".33203"/>
   <stop stop-color="#572e71" offset=".33594"/>
   <stop stop-color="#5a3474" offset=".33984"/>
   <stop stop-color="#5d3977" offset=".34375"/>
   <stop stop-color="#603e7a" offset=".34766"/>
   <stop stop-color="#63427c" offset=".35156"/>
   <stop stop-color="#674780" offset=".35547"/>
   <stop stop-color="#6a4d83" offset=".35938"/>
   <stop stop-color="#6e5287" offset=".36328"/>
   <stop stop-color="#72588b" offset=".36719"/>
   <stop stop-color="#785e8f" offset=".37109"/>
   <stop stop-color="#7d6393" offset=".375"/>
   <stop stop-color="#836998" offset=".37891"/>
   <stop stop-color="#886f9c" offset=".38281"/>
   <stop stop-color="#8d75a2" offset=".38672"/>
   <stop stop-color="#937ba7" offset=".39062"/>
   <stop stop-color="#9783ab" offset=".39453"/>
   <stop stop-color="#9b8bae" offset=".39844"/>
   <stop stop-color="#a193b2" offset=".40234"/>
   <stop stop-color="#a69bb6" offset=".40625"/>
   <stop stop-color="#ada3bb" offset=".41016"/>
   <stop stop-color="#b3acc0" offset=".41406"/>
   <stop stop-color="#bab5c6" offset=".41797"/>
   <stop stop-color="#c1becb" offset=".42188"/>
   <stop stop-color="#ccc9d3" offset=".42578"/>
   <stop stop-color="#d6d4da" offset=".42969"/>
   <stop stop-color="#e2e1e5" offset=".43359"/>
   <stop stop-color="#eeeef0" offset=".4375"/>
   <stop stop-color="#f6f6f7" offset=".44141"/>
   <stop stop-color="#fff" offset=".44531"/>
   <stop stop-color="#fff" offset=".45312"/>
   <stop stop-color="#fff" offset=".46875"/>
   <stop stop-color="#fff" offset=".5"/>
   <stop stop-color="#fff" offset=".625"/>
   <stop stop-color="#fff" offset=".6875"/>
   <stop stop-color="#fff" offset=".70312"/>
   <stop stop-color="#f5f5f6" offset=".70703"/>
   <stop stop-color="#ececee" offset=".71094"/>
   <stop stop-color="#dedde2" offset=".71484"/>
   <stop stop-color="#cfcdd5" offset=".71875"/>
   <stop stop-color="#c5c2ce" offset=".72266"/>
   <stop stop-color="#bab6c6" offset=".72656"/>
   <stop stop-color="#b2acc0" offset=".73047"/>
   <stop stop-color="#aaa1ba" offset=".73438"/>
   <stop stop-color="#a397b5" offset=".73828"/>
   <stop stop-color="#9d8daf" offset=".74219"/>
   <stop stop-color="#9784ab" offset=".74609"/>
   <stop stop-color="#927aa6" offset=".75"/>
   <stop stop-color="#8c73a0" offset=".75391"/>
   <stop stop-color="#856b99" offset=".75781"/>
   <stop stop-color="#7f6494" offset=".76172"/>
   <stop stop-color="#785d8f" offset=".76562"/>
   <stop stop-color="#72578a" offset=".76953"/>
   <stop stop-color="#6c5085" offset=".77344"/>
   <stop stop-color="#684a81" offset=".77734"/>
   <stop stop-color="#64437d" offset=".78125"/>
   <stop stop-color="#603e7a" offset=".78516"/>
   <stop stop-color="#5d3977" offset=".78906"/>
   <stop stop-color="#593273" offset=".79297"/>
   <stop stop-color="#562b6f" offset=".79688"/>
   <stop stop-color="#552a6e" offset=".80078"/>
   <stop stop-color="#54296d" offset=".80469"/>
   <stop stop-color="#54296d" offset=".8125"/>
   <stop stop-color="#54296d" offset=".875"/>
   <stop stop-color="#54296d" offset="1"/>
  </linearGradient>
  <clipPath id="clipPath38847">
   <path d="m495.94-0.003906c-12.604 0-24.219 0.88547-35 2.5-17.656 2.7604-33.333 7.707-47.76 14.27-29.271 13.542-60.834 42.344-84.74 68.49-4.1451 4.3166-8.1853 8.7464-12.143 13.24 39.869-45.174 89.204-82.643 144.64-85.896 0.0533 0 0.156-0.05067 0.26-0.05067l2.1367-0.10533c2.9688-0.15627 5.9375-0.20893 8.9063-0.20893 122.71 0 250.47 103.02 365.83 226.77 18.802 20.104 36.824 40.208 53.959 60.104h12.084v14.062c121.35 143.12 200.31 274.01 230 322.08h144.38c-62.656-83.802-123.23-157.71-180.37-222.66-12.344 10.729-29.48 17.656-50.522 17.656-47.031 0-73.437-33.333-73.437-66.354 0-19.844 10.001-41.094 29.481-54.062-35.052-36.458-68.283-69.116-99.324-98.23-179.37-168.07-294.95-202.29-379.79-210.21-9.9999-0.93747-19.531-1.4063-28.594-1.4063zm-179.64 98.5c-0.10667 0.12-0.212 0.2408-0.31867 0.36133 0.10667-0.12 0.212-0.2408 0.31867-0.36133zm-0.31867 0.36133c-2.7901 3.1754-5.5312 6.3838-8.2265 9.623 2.6981-3.2369 5.434-6.4521 8.2265-9.623zm-8.2265 9.623c-2.4955 2.9938-4.9309 6.0176-7.3437 9.0527 2.4107-3.0341 4.8512-6.0571 7.3437-9.0527zm-7.3437 9.0527c-0.49333 0.62013-1.0067 1.2301-1.4961 1.8516 0.48933-0.62147 1.0027-1.2315 1.4961-1.8516zm-1.4961 1.8516c-3.0169 3.8307-5.9753 7.683-8.8573 11.549 2.886-3.8609 5.8395-7.7161 8.8573-11.549zm-9.2227 12.068c-0.416 0.5208-0.83333 1.0951-1.2493 1.668 0.416-0.57293 0.83333-1.1472 1.2493-1.668zm-1.8749 2.5c-0.36533 0.5208-0.72933 1.0431-1.0933 1.5117 0.364-0.4688 0.72933-0.99094 1.0933-1.5117zm-1.9785 2.7617c-0.312 0.36453-0.57334 0.7292-0.83334 1.0937 0.26-0.36453 0.52267-0.7292 0.83334-1.0937zm-2.084 2.8633c-0.156 0.2084-0.364 0.47013-0.52134 0.73053 0.156-0.2604 0.364-0.47 0.52134-0.73053zm739.9 191.2c-10.521 6.7708-16.719 18.438-16.719 33.125 0 23.646 16.197 39.479 40.676 39.479 13.177 0 23.96-4.6869 31.043-12.76-18.75-20.937-37.083-40.833-55-59.844z" stroke-width="13.333"/>
  </clipPath>
  <clipPath id="clipPath38870">
   <path d="m472.24 12.234c-2.9681 2.6e-5 -5.9361 0.052-8.9043 0.20893l-2.1367 0.104c-0.10666 0-0.208 0.05333-0.26 0.05333-68.333 4.0104-127.4 60.001-170.88 118.33-0.10667 0.15627-0.26 0.3632-0.36533 0.51947-0.416 0.5208-0.83334 1.0951-1.2493 1.668-0.208 0.2604-0.416 0.5716-0.62533 0.832-0.36533 0.5208-0.728 1.0431-1.092 1.5117-0.312 0.41667-0.62667 0.83334-0.88667 1.25-0.312 0.36454-0.572 0.7292-0.832 1.0937-0.416 0.62506-0.83333 1.1965-1.2493 1.7695-0.156 0.2604-0.36267 0.47013-0.52 0.73053-27.5 38.437-48.125 76.77-60 100.83h21.563c21.406-40.781 107.29-196.67 213.12-200.99l3.4884-0.104h-0.20666v-2e-3h0.20533c0.98933-0.052 2.0299-0.05067 3.0195-0.05067 108.33 0 237.92 105.83 353.86 243.64 18.489 21.927 36.51 44.375 53.906 67.031v-51.562h19.844c-17.135-19.896-35.157-39.999-53.959-60.103-115.36-123.75-243.12-226.77-365.83-226.77zm431.88 300.94v80.156c65.365 89.427 120.42 177.76 159.22 241.93h70.781c-29.688-48.073-108.65-178.96-230-322.08z"/>
  </clipPath>
 </defs>
 <g transform="translate(-1.025e-5)">
  <path d="m1419.5 299.21h-8.1251l-10.833 30.156h-0.1067l-10.312-30.156h-8.1771v38.542h5.1563v-32.292h0.1066l11.563 32.292h3.2292l12.24-32.292h0.1066v32.292h5.1563v-38.542m-43.646 0h-30.156v4.7917h12.396v33.75h5.5208v-33.75h12.24v-4.7917" display="none" fill="#0c0f0f"/>
  <path d="m1419.5 6.301e-7h-1419.5v635.2h1419.5z" clip-path="url(#clipPath38870)" fill="url(#linear1)"/>
  <path d="m1419.5 6.301e-7h-1419.5v635.2h1419.5z" clip-path="url(#clipPath38847)" fill="url(#linearGradient38832)"/>
  <path d="m48.854 297.44c-29.74 0-48.854 14.74-48.854 37.187 0 46.458 65.156 38.75 65.156 60 0 7.5521-6.5625 11.875-18.802 11.875-14.063 0-25.365-4.3229-43.698-16.667v27.969c12.708 6.5625 23.854 12.448 46.198 12.448 28.542 0 49.219-14.375 49.219-39.219 0-45.26-65.156-39.74-65.156-59.271 0-6.5104 7.2916-10.677 18.698-10.677 10.938 0 21.979 3.2292 40.677 11.615v-25.208c-16.198-7.0833-29.167-10.052-43.437-10.052" fill="#0c0f0f"/>
  <path d="m224.06 299.11h-57.031v129.48h31.927v-51.979h25.312c29.531 0 42.24-20.833 42.24-39.115 0-17.604-13.073-38.385-42.448-38.385m-25.104 53.75v-30h11.198c17.24 0 23.49 3.9583 23.49 15 0 9.6354-5.2604 15-19.896 15h-14.792" fill="#0c0f0f"/>
  <path d="m389.17 299.11h-36.979l-51.719 129.48h33.854l9.6354-25.677h57.24l10.521 25.677h34.323l-56.875-129.48m-36.823 81.25 18.854-50.313 20.625 50.313h-39.479" fill="#0c0f0f"/>
  <path d="m636.72 299.11h-31.927v79.219l-68.385-79.219h-29.271v129.48h31.927v-82.917l70.781 82.917h26.875v-129.48" fill="#0c0f0f"/>
  <path d="m754.22 297.44c-29.792 0-48.854 14.74-48.854 37.187 0 46.458 65.156 38.75 65.156 60 0 7.5521-6.5626 11.875-18.802 11.875-14.063 0-25.365-4.3229-43.802-16.667v27.969c12.813 6.5625 23.958 12.448 46.302 12.448 28.437 0 49.219-14.375 49.219-39.219 0-45.26-65.208-39.74-65.208-59.271 0-6.5104 7.3437-10.677 18.75-10.677 10.937 0 21.979 3.2292 40.573 11.615v-25.208c-16.094-7.0833-29.167-10.052-43.333-10.052" fill="#0c0f0f"/>
  <path d="m904.11 299.11h-31.927v129.48h31.927v-129.48" fill="#0c0f0f"/>
  <path d="m1047.6 297.44c-17.864 0-32.552 4.7917-43.958 12.396-19.479 12.969-29.479 34.219-29.479 54.063 0 33.021 26.406 66.354 73.438 66.354 21.042 0 38.177-6.9271 50.521-17.656 14.688-12.708 22.708-30.729 22.708-48.698 0-31.198-25-66.458-73.229-66.458m-23.958 33.333c6.5104-4.1667 14.635-6.4583 23.958-6.4583 24.271 0 40.312 15.833 40.312 39.583 0 10.781-3.3333 19.948-9.2708 26.719-7.0833 8.0729-17.865 12.76-31.042 12.76-24.479 0-40.677-15.833-40.677-39.479 0-14.688 6.1979-26.354 16.719-33.125" fill="#0c0f0f"/>
  <path d="m1319.8 299.11h-31.927v79.219l-68.438-79.219h-29.271v129.48h31.927v-82.917l70.833 82.917h26.875v-129.48" fill="#0c0f0f"/>
 </g>
</svg>
