<?xml version="1.0" encoding="utf-8"?>
<!-- Generator: Adobe Illustrator 16.0.0, SVG Export Plug-In . SVG Version: 6.00 Build 0)  -->
<!DOCTYPE svg PUBLIC "-//W3C//DTD SVG 1.1//EN" "http://www.w3.org/Graphics/SVG/1.1/DTD/svg11.dtd">
<svg version="1.1" id="Ebene_1" xmlns="http://www.w3.org/2000/svg" xmlns:xlink="http://www.w3.org/1999/xlink" x="0px" y="0px"
	 width="784px" height="267px" viewBox="95.5 312.5 784 267" enable-background="new 95.5 312.5 784 267" xml:space="preserve">
<g>
	<g>
		<path fill="#85C3E3" d="M172.932,331.759c9.289,55.399,20.24,110.133,30.183,165.188h0.665l31.845-130.694
			c0,0-1.663-8.624-6.307-28.531l46.442-10.619c28.198,132.689,28.198,133.675,34.494,168.514h0.665
			c3.646-22.889,13.933-69.332,29.196-136.336c3.646-15.917,3.979-20.228,4.977-27.533h41.799
			c-8.314,31.441-21.19,71.28-31.797,111.333c-14.337,54.176-25.989,107.199-30.574,125.504h-40.136l-31.845-136.669h-0.666
			l-36.145,136.692h-39.471c-2.602-11.082-12.769-59.771-24.968-111.582c-11.188-47.477-24.267-97.507-31.085-125.266H172.932z"/>
		<path fill="#85C3E3" d="M411.978,506.901c3.147,17.912,13.362,33.84,30.039,33.84c11.011,0,21.238-5.535,31.311-14.479
			l14.005,17.912c-13.221,16.249-31.607,28.412-56.16,28.412c-37.131,0-66.208-34.827-66.208-84.916
			c0-47.441,28.722-90.226,67.456-90.226c19.503,0,34.612,8.956,43.426,22.889c7.555,11.938,10.69,35.491,11.949,57.05
			L411.978,506.901z M434.142,467.431c11.664-4.312,13.553-8.291,13.553-14.931c0-13.268-5.986-27.201-18.28-27.201
			c-15.12,0-22.058,22.224-22.058,44.447c0,2.981,0,5.643,0.321,7.626L434.142,467.431z"/>
		<path fill="#85C3E3" d="M672.166,506.901c3.147,17.912,13.362,33.84,30.039,33.84c11.011,0,21.238-5.535,31.311-14.479
			l14.004,17.912c-13.22,16.249-31.607,28.412-56.159,28.412c-37.131,0-66.208-34.827-66.208-84.916
			c0-47.441,28.721-90.226,67.467-90.226c19.504,0,34.613,8.956,43.427,22.889c7.554,11.938,10.69,35.491,11.949,57.05
			L672.166,506.901z M694.71,467.431c11.664-4.312,13.553-8.291,13.553-14.931c0-13.268-5.986-27.201-18.28-27.201
			c-15.133,0-22.058,22.224-22.058,44.447c0,2.981,0,5.643,0.31,7.626L694.71,467.431z"/>
		<path fill="#85C3E3" d="M499.186,568.607c1.663-9.954,2.661-35.824,2.661-61.041V398.098c0-13.6-0.998-55.731-2.661-66.339h47.108
			v175.807c0,25.205,0.998,51.087,2.649,61.041H499.186L499.186,568.607z"/>
		<path fill="#85C3E3" d="M562.543,568.607c1.651-9.954,2.649-35.824,2.649-61.041V398.098c0-13.6-0.998-55.731-2.649-66.339h47.108
			v175.807c0,25.205,0.998,51.087,2.649,61.041H562.543L562.543,568.607z"/>
		<path fill="#85C3E3" d="M805.781,401.424c2.328,7.293,3.979,19.575,3.979,23.886h0.665c11.938-17.579,26.868-27.866,51.088-27.866
			v39.138c-1.663-0.332-5.643-1.33-10.951-1.33c-10.619,0-18.91,4.312-25.206,12.27c-11.938,15.264-12.27,41.467-12.27,60.044
			c0,25.205,0.998,51.087,2.648,61.041h-51.753c1.663-9.954,2.661-35.824,2.661-61.041v-45.113c0-25.205-2.328-51.087-5.31-61.029
			L805.781,401.424L805.781,401.424z"/>
	</g>
</g>
</svg>
